# Made in Blockbench 5.1.6
mtllib balustrade_gate_half.mtl

g railings
v 0.4959888892202555 0.25000016069677733 -0.03569665242155459
v 0.6875 0.249999999999875 0.1250002499999999
v 0.6875 0.31249999999984374 0.12500031249999988
v 0.4959888892202555 0.3125001606967461 -0.03569658992155461
v 0.054072407560759705 0.24999963404122294 0.49095890222247945
v 0.24558351834050418 0.24999947334432057 0.6516558046440339
v 0.24558351834050418 0.3124994733442893 0.6516558671440339
v 0.054072407560759705 0.31249963404119163 0.4909589647224794
v 0.4959888892202555 -0.4374998393028789 -0.0356973399215543
v 0.6875 -0.43749999999978123 0.12499956250000017
v 0.6875 -0.3749999999998125 0.12499962500000016
v 0.4959888892202555 -0.37499983930291014 -0.035697277421554346
v 0.054072407560759705 -0.43750036595843333 0.49095821472247975
v 0.24558351834050418 -0.4375005266553357 0.6516551171440342
v 0.24558351834050418 -0.37500052665536693 0.6516551796440342
v 0.054072407560759705 -0.3750003659584646 0.4909582772224797
v 0.10195018525569588 0.24999959386699733 0.5311331278278681
v 0.054072407560759705 0.24999963404122294 0.49095890222247945
v 0.5438666669151917 0.25000012052255177 0.00447757318383403
v 0.4959888892202555 0.25000016069677733 -0.03569665242155459
v 0.24558351834050418 0.24999947334432057 0.6516558046440339
v 0.19770574064556806 0.24999951351854616 0.6114815790386453
v 0.6875 0.249999999999875 0.1250002499999999
v 0.6396222223050639 0.2500000401741006 0.08482602439461127
v 0.6875 -0.3749999999998125 0.12499962500000016
v 0.6396222223050638 -0.37499995982558687 0.08482539939461153
v 0.24558351834050418 -0.37500052665536693 0.6516551796440342
v 0.19770574064556806 -0.3750004864811413 0.6114809540386456
v 0.5438666669151917 -0.3749998794771357 0.0044769481838342895
v 0.4959888892202555 -0.37499983930291014 -0.035697277421554346
v 0.10195018525569588 -0.37500040613269015 0.5311325028278684
v 0.054072407560759705 -0.3750003659584646 0.4909582772224797
v -0.05407240480022746 0.24999962223099811 0.4909589055123418
v -0.2455835155799717 0.24999946153409577 0.6516558079338961
v -0.24558351488983876 0.3124994615340637 0.6516558712563649
v -0.054072404110094174 0.3124996222309661 0.49095896883481027
v -0.49598888645972306 0.250000160696774 -0.03569664913168019
v -0.6874999972394673 0.24999999999987169 0.1250002532898743
v -0.6874999965493345 0.3124999999998396 0.12500031661234268
v -0.49598888576958977 0.3125001606967419 -0.0356965858092117
v -0.05407241239169136 -0.4375003777686489 0.49095820896518755
v -0.24558352317143595 -0.4375005384655513 0.651655111386742
v -0.24558352248130277 -0.3750005384655833 0.6516551747092105
v -0.05407241170155819 -0.37500037776868095 0.4909582722876561
v -0.49598889405118696 -0.4374998393028731 -0.035697345678834536
v -0.6875000048309314 -0.4374999999997754 0.12499955674272001
v -0.6875000041407984 -0.3749999999998075 0.12499962006518861
v -0.4959888933610541 -0.37499983930290515 -0.03569728235636599
v -0.543866664154659 0.25000012052254844 0.0044775764737085
v -0.49598888645972306 0.250000160696774 -0.03569664913168019
v -0.10195018249516341 0.24999958205677253 0.5311331311177303
v -0.05407240480022746 0.24999962223099811 0.4909589055123418
v -0.6874999972394673 0.24999999999987169 0.1250002532898743
v -0.6396222195445311 0.25000004017409727 0.08482602768448555
v -0.2455835155799717 0.24999946153409577 0.6516558079338961
v -0.19770573788503576 0.24999950170832136 0.6114815823285076
v -0.24558352248130277 -0.3750005384655833 0.6516551747092105
v -0.1977057447863666 -0.3750004982913577 0.6114809491038219
v -0.6875000041407984 -0.3749999999998075 0.12499962006518861
v -0.6396222264458622 -0.3749999598255819 0.08482539445979986
v -0.10195018939649447 -0.3750004179429065 0.5311324978930447
v -0.05407241170155819 -0.37500037776868095 0.4909582722876561
v -0.5438666710559901 -0.3749998794771307 0.004476943249022591
v -0.4959888933610541 -0.37499983930290515 -0.03569728235636599
v -0.6875 0.24999999999999997 0.0625
v -0.6875 0.24999999999999997 -0.0625
v -0.6874999999999998 -0.37499999999999994 0.06249999999999989
v -0.6875 -0.37499999999999994 -0.0625
v -0.8124999999999998 0.24999999999999997 0.06249999999999978
v -0.8124999999999996 0.24999999999999994 -0.06250000000000022
v -0.8124999999999998 -0.37499999999999994 0.06249999999999967
v -0.8124999999999996 -0.37499999999999994 -0.06250000000000011
v -0.6874999999999998 0.3125 0.12499999999999989
v -0.6875 0.31249999999999994 -0.1250000000000001
v -0.6875 0.25 0.12499999999999989
v -0.6875 0.24999999999999997 -0.125
v -0.8124999999999996 0.3125 0.125
v -0.8124999999999998 0.31249999999999994 -0.1250000000000001
v -0.8124999999999998 0.24999999999999994 0.12499999999999978
v -0.8124999999999998 0.24999999999999994 -0.12500000000000022
v -0.6875 -0.375 0.12499999999999989
v -0.6875 -0.37499999999999994 -0.1250000000000001
v -0.6874999999999996 -0.43749999999999994 0.12499999999999989
v -0.6874999999999998 -0.43749999999999994 -0.1250000000000001
v -0.8124999999999996 -0.375 0.12499999999999978
v -0.8124999999999996 -0.37499999999999994 -0.12500000000000022
v -0.8125 -0.43749999999999994 0.12499999999999989
v -0.8124999999999998 -0.43749999999999994 -0.12500000000000022
v 0.8125 0.24999999999999997 0.062499999999999986
v 0.8125 0.24999999999999997 -0.06249999999999997
v 0.8125 -0.375 0.0625
v 0.8125 -0.37499999999999994 -0.06249999999999997
v 0.6875 0.24999999999999994 0.06250000000000003
v 0.6875 0.24999999999999997 -0.06249999999999997
v 0.6875 -0.375 0.06250000000000004
v 0.6875 -0.37499999999999994 -0.062499999999999944
v 0.8125 0.31249999999999994 0.125
v 0.8124999999999999 0.31249999999999994 -0.12499999999999997
v 0.8125 0.25 0.12499999999999997
v 0.8125 0.24999999999999997 -0.125
v 0.6875 0.3125 0.12499999999999999
v 0.6875 0.31249999999999994 -0.125
v 0.6875 0.25 0.12500000000000003
v 0.6875 0.24999999999999994 -0.12499999999999994
v 0.8125 -0.375 0.125
v 0.8125 -0.375 -0.125
v 0.8125 -0.43749999999999994 0.12500000000000006
v 0.8125 -0.43749999999999994 -0.12499999999999989
v 0.6875 -0.375 0.12500000000000003
v 0.6875 -0.375 -0.12499999999999994
v 0.6875 -0.43749999999999994 0.12500000000000003
v 0.6875 -0.4375 -0.12499999999999994
vt 0.625 0.9375
vt 0.375 0.9375
vt 0.375 1
vt 0.625 1
vt 0.375 0.875
vt 0.625 0.875
vt 0.625 0.9375
vt 0.375 0.9375
vt 0 0.75
vt 0 0.8125
vt 0.6875 0.8125
vt 0.6875 0.75
vt 1 0.6875
vt 1 0.75
vt 0.3125 0.75
vt 0.3125 0.6875
vt 0 0.375
vt 0.6875 0.375
vt 0.6875 0.625
vt 0 0.625
vt 0.625 0
vt 0.375 0
vt 0.375 0.0625
vt 0.625 0.0625
vt 0.3125 0.0625
vt 0.5625 0.0625
vt 0.5625 0.125
vt 0.3125 0.125
vt 0 0.0625
vt 0 0.125
vt 0.6875 0.125
vt 0.6875 0.0625
vt 1 0.0625
vt 1 0.125
vt 0.3125 0.125
vt 0.3125 0.0625
vt 1 0.375
vt 1 0.625
vt 0.3125 0.625
vt 0.3125 0.375
vt 0.3125 0.6875
vt 0.3125 0.625
vt 1 0.625
vt 1 0.6875
vt 0.3125 0.375
vt 0.3125 0.3125
vt 1 0.3125
vt 1 0.375
vt 0.6875 0.3125
vt 0.6875 0.375
vt 0 0.375
vt 0 0.3125
vt 0.6875 0.625
vt 0.6875 0.6875
vt 0 0.6875
vt 0 0.625
vt 0.625 0.9375
vt 0.375 0.9375
vt 0.375 1
vt 0.625 1
vt 0.375 0.875
vt 0.625 0.875
vt 0.625 0.9375
vt 0.375 0.9375
vt 0 0.75
vt 0 0.8125
vt 0.6875 0.8125
vt 0.6875 0.75
vt 1 0.6875
vt 1 0.75
vt 0.3125 0.75
vt 0.3125 0.6875
vt 0 0.375
vt 0.6875 0.375
vt 0.6875 0.625
vt 0 0.625
vt 0.625 0
vt 0.375 0
vt 0.375 0.0625
vt 0.625 0.0625
vt 0.3125 0.0625
vt 0.5625 0.0625
vt 0.5625 0.125
vt 0.3125 0.125
vt 0 0.0625
vt 0 0.125
vt 0.6875 0.125
vt 0.6875 0.0625
vt 1 0.0625
vt 1 0.125
vt 0.3125 0.125
vt 0.3125 0.0625
vt 1 0.375
vt 1 0.625
vt 0.3125 0.625
vt 0.3125 0.375
vt 0.3125 0.6875
vt 0.3125 0.625
vt 1 0.625
vt 1 0.6875
vt 0.3125 0.375
vt 0.3125 0.3125
vt 1 0.3125
vt 1 0.375
vt 0.6875 0.3125
vt 0.6875 0.375
vt 0 0.375
vt 0 0.3125
vt 0.6875 0.625
vt 0.6875 0.6875
vt 0 0.6875
vt 0 0.625
vt 0.5625 0.75
vt 0.4375 0.75
vt 0.4375 0.125
vt 0.5625 0.125
vt 0.75 0.0625
vt 0.75 0.6875
vt 0.625 0.6875
vt 0.625 0.0625
vt 0.9375 0
vt 0.9375 0.625
vt 0.8125 0.625
vt 0.8125 0
vt 0.125 0.6875
vt 0 0.6875
vt 0 0.0625
vt 0.125 0.0625
vt 0.875 0.6875
vt 0.625 0.6875
vt 0.625 0.625
vt 0.875 0.625
vt 0.625 0.75
vt 0.625 0.8125
vt 0.375 0.8125
vt 0.375 0.75
vt 0.3125 0.4375
vt 0.4375 0.4375
vt 0.4375 0.6875
vt 0.3125 0.6875
vt 0.4375 0.4375
vt 0.4375 0.6875
vt 0.3125 0.6875
vt 0.3125 0.4375
vt 0.6875 0.5625
vt 0.6875 0.625
vt 0.5625 0.625
vt 0.5625 0.5625
vt 0.6875 0.625
vt 0.5625 0.625
vt 0.5625 0.5625
vt 0.6875 0.5625
vt 0.875 0.6875
vt 0.625 0.6875
vt 0.625 0.625
vt 0.875 0.625
vt 0.625 0.75
vt 0.625 0.8125
vt 0.375 0.8125
vt 0.375 0.75
vt 0.3125 0.4375
vt 0.4375 0.4375
vt 0.4375 0.6875
vt 0.3125 0.6875
vt 0.4375 0.4375
vt 0.4375 0.6875
vt 0.3125 0.6875
vt 0.3125 0.4375
vt 0.6875 0.5625
vt 0.6875 0.625
vt 0.5625 0.625
vt 0.5625 0.5625
vt 0.6875 0.625
vt 0.5625 0.625
vt 0.5625 0.5625
vt 0.6875 0.5625
vt 0.75 0.6875
vt 0.625 0.6875
vt 0.625 0.0625
vt 0.75 0.0625
vt 0.5625 0.125
vt 0.5625 0.75
vt 0.4375 0.75
vt 0.4375 0.125
vt 0.9375 0
vt 0.9375 0.625
vt 0.8125 0.625
vt 0.8125 0
vt 0.125 0.6875
vt 0 0.6875
vt 0 0.0625
vt 0.125 0.0625
vt 0.625 0.8125
vt 0.375 0.8125
vt 0.375 0.75
vt 0.625 0.75
vt 0.875 0.625
vt 0.875 0.6875
vt 0.625 0.6875
vt 0.625 0.625
vt 0.3125 0.4375
vt 0.4375 0.4375
vt 0.4375 0.6875
vt 0.3125 0.6875
vt 0.4375 0.4375
vt 0.4375 0.6875
vt 0.3125 0.6875
vt 0.3125 0.4375
vt 0.6875 0.5625
vt 0.6875 0.625
vt 0.5625 0.625
vt 0.5625 0.5625
vt 0.6875 0.625
vt 0.5625 0.625
vt 0.5625 0.5625
vt 0.6875 0.5625
vt 0.625 0.8125
vt 0.375 0.8125
vt 0.375 0.75
vt 0.625 0.75
vt 0.875 0.625
vt 0.875 0.6875
vt 0.625 0.6875
vt 0.625 0.625
vt 0.3125 0.4375
vt 0.4375 0.4375
vt 0.4375 0.6875
vt 0.3125 0.6875
vt 0.4375 0.4375
vt 0.4375 0.6875
vt 0.3125 0.6875
vt 0.3125 0.4375
vt 0.6875 0.5625
vt 0.6875 0.625
vt 0.5625 0.625
vt 0.5625 0.5625
vt 0.6875 0.625
vt 0.5625 0.625
vt 0.5625 0.5625
vt 0.6875 0.5625
vn -0.6427876096865394 -7.660444427893233e-7 0.7660444431185949
vn -0.6427876096865394 -7.660444427893233e-7 0.7660444431185949
vn 0.7660444431189779 -6.427876094341325e-7 0.642787609686218
vn 0.7660444431189779 -6.427876094341325e-7 0.642787609686218
vn 1.854271588569911e-17 0.9999999999995 9.99999999585226e-7
vn -0.6427876096865394 -7.660444427893233e-7 0.7660444431185949
vn -0.6427876096865394 -7.660444427893233e-7 0.7660444431185949
vn 0.7660444431189779 -6.427876094341325e-7 0.642787609686218
vn 0.7660444431189779 -6.427876094341325e-7 0.642787609686218
vn -1.854271588569911e-17 -0.9999999999995 -9.99999999585226e-7
vn -1.854271588569911e-17 -0.9999999999995 -9.99999999585226e-7
vn -1.854271588569911e-17 -0.9999999999995 -9.99999999585226e-7
vn 1.854271588569911e-17 0.9999999999995 9.99999999585226e-7
vn 1.854271588569911e-17 0.9999999999995 9.99999999585226e-7
vn -0.6427876096865396 7.832229466547947e-7 -0.7660444431185776
vn -0.6427876096865395 7.832229443233264e-7 -0.7660444431185777
vn -0.7660444431189778 -6.427876046744659e-7 0.6427876096862183
vn -0.7660444431189781 -6.427876118261759e-7 0.6427876096862177
vn 1.1042129460365441e-8 0.9999999999994869 0.000001013159497017402
vn -0.6427876096865395 7.832229477650178e-7 -0.7660444431185777
vn -0.6427876096865394 7.832229449894602e-7 -0.7660444431185776
vn -0.766044443118978 -6.427876078647446e-7 0.6427876096862181
vn -0.766044443118978 -6.427876080189751e-7 0.6427876096862181
vn -1.1042129512266358e-8 -0.9999999999994869 -0.000001013159497079255
vn -1.1042129512266358e-8 -0.9999999999994869 -0.000001013159497079255
vn -1.1042129512266358e-8 -0.9999999999994869 -0.000001013159497079255
vn 1.104212872808039e-8 0.9999999999994869 0.0000010131594975264587
vn 1.1042129408464508e-8 0.9999999999994869 0.0000010131594969555488
vn 1 3.66204106833556e-18 -6.10622663543836e-16
vn -1 2.3537986813012935e-18 -1.2767564783189298e-15
vn -1.5543122344752192e-15 2.83918032381353e-17 1
vn 1.2212453270876722e-15 -3.2749787751758675e-17 -1
vn 1 -1.794899555285949e-15 -2.775557561562891e-16
vn -1 -5.075799408400479e-16 1.6653345369377343e-16
vn 1.8541762973633445e-17 1 -1.1046283720085416e-16
vn 4.255460704478898e-16 -1 1.1046289014041337e-16
vn 8.881784197001252e-16 -6.860347479917153e-17 1
vn -2.2204460492503126e-16 1.1158049717475621e-16 -1
vn 1 3.0900817530647384e-15 -2.775557561562891e-16
vn -1 1.7760605896269479e-15 5.5511151231257815e-17
vn 1.854324528129114e-17 1 1.115816618450587e-16
vn -1.854292764393592e-17 -1 1.1046273132173576e-16
vn -4.996003610813204e-16 -5.064989679806739e-16 1
vn 1.2212453270876722e-15 5.556685423545164e-16 -1
vn 1 -7.4407609251554e-18 0
vn -1 2.3539045604197003e-18 0
vn 3.885780586188048e-16 2.839153854033928e-17 1
vn -3.3306690738754696e-16 -3.2747458411153726e-17 -1
vn 1 8.696352802979523e-16 5.5511151231257815e-17
vn -1 -1.5561742246515207e-16 0
vn 1.85426100065807e-17 1 -1.1046267838217655e-16
vn -1.8542504127462292e-17 -1 -5.594123221022619e-19
vn 5.5511151231257815e-17 -2.875516449063963e-16 1
vn 3.3306690738754696e-16 3.3362526091846516e-16 -1
vn 1 -4.626322433731168e-16 0
vn -1 -7.265278991890358e-16 1.6653345369377343e-16
vn 1.854229236922548e-17 1 1.115818206637363e-16
vn -1.8542821764817513e-17 -1 1.1046278426129496e-16
vn 3.885780586188048e-16 1.073217690406833e-15 1
vn -3.885780586188048e-16 -9.986413098405386e-16 -1
usemtl m_e98ce801-216c-e472-d335-eeb613367751
f 1/1/1 2/2/1 3/3/1 4/4/1
f 5/5/2 6/6/2 7/7/2 8/8/2
f 1/9/3 4/10/3 8/11/3 5/12/3
f 2/13/4 3/14/4 7/15/4 6/16/4
f 7/17/5 3/18/5 4/19/5 8/20/5
f 9/21/6 10/22/6 11/23/6 12/24/6
f 13/25/7 14/26/7 15/27/7 16/28/7
f 9/29/8 12/30/8 16/31/8 13/32/8
f 10/33/9 11/34/9 15/35/9 14/36/9
f 9/37/10 10/38/10 14/39/10 13/40/10
f 17/41/11 18/42/11 20/43/11 19/44/11
f 21/45/12 22/46/12 24/47/12 23/48/12
f 25/49/13 26/50/13 28/51/13 27/52/13
f 29/53/14 30/54/14 32/55/14 31/56/14
f 33/57/15 34/58/15 35/59/15 36/60/15
f 37/61/16 38/62/16 39/63/16 40/64/16
f 33/65/17 36/66/17 40/67/17 37/68/17
f 34/69/18 35/70/18 39/71/18 38/72/18
f 39/73/19 35/74/19 36/75/19 40/76/19
f 41/77/20 42/78/20 43/79/20 44/80/20
f 45/81/21 46/82/21 47/83/21 48/84/21
f 41/85/22 44/86/22 48/87/22 45/88/22
f 42/89/23 43/90/23 47/91/23 46/92/23
f 41/93/24 42/94/24 46/95/24 45/96/24
f 49/97/25 50/98/25 52/99/25 51/100/25
f 53/101/26 54/102/26 56/103/26 55/104/26
f 57/105/27 58/106/27 60/107/27 59/108/27
f 61/109/28 62/110/28 64/111/28 63/112/28
f 66/113/29 65/114/29 67/115/29 68/116/29
f 71/117/30 69/118/30 70/119/30 72/120/30
f 67/121/31 65/122/31 69/123/31 71/124/31
f 70/125/32 66/126/32 68/127/32 72/128/32
f 74/129/33 73/130/33 75/131/33 76/132/33
f 79/133/34 77/134/34 78/135/34 80/136/34
f 77/137/35 73/138/35 74/139/35 78/140/35
f 76/141/36 75/142/36 79/143/36 80/144/36
f 75/145/37 73/146/37 77/147/37 79/148/37
f 78/149/38 74/150/38 76/151/38 80/152/38
f 82/153/39 81/154/39 83/155/39 84/156/39
f 87/157/40 85/158/40 86/159/40 88/160/40
f 85/161/41 81/162/41 82/163/41 86/164/41
f 84/165/42 83/166/42 87/167/42 88/168/42
f 83/169/43 81/170/43 85/171/43 87/172/43
f 86/173/44 82/174/44 84/175/44 88/176/44
f 90/177/45 89/178/45 91/179/45 92/180/45
f 95/181/46 93/182/46 94/183/46 96/184/46
f 91/185/47 89/186/47 93/187/47 95/188/47
f 94/189/48 90/190/48 92/191/48 96/192/48
f 98/193/49 97/194/49 99/195/49 100/196/49
f 103/197/50 101/198/50 102/199/50 104/200/50
f 101/201/51 97/202/51 98/203/51 102/204/51
f 100/205/52 99/206/52 103/207/52 104/208/52
f 99/209/53 97/210/53 101/211/53 103/212/53
f 102/213/54 98/214/54 100/215/54 104/216/54
f 106/217/55 105/218/55 107/219/55 108/220/55
f 111/221/56 109/222/56 110/223/56 112/224/56
f 109/225/57 105/226/57 106/227/57 110/228/57
f 108/229/58 107/230/58 111/231/58 112/232/58
f 107/233/59 105/234/59 109/235/59 111/236/59
f 110/237/60 106/238/60 108/239/60 112/240/60
g spindles
v 0.5438666669151917 0.187500120522583 0.004477510683834063
v 0.6396222223050639 0.18750004017413183 0.08482596189461131
v 0.6396222223050639 0.2500000401741006 0.08482602439461127
v 0.5438666669151917 0.25000012052255177 0.00447757318383403
v 0.10195018525569588 0.18749959386702858 0.5311330653278681
v 0.19770574064556806 0.1874995135185774 0.6114815165386454
v 0.19770574064556806 0.24999951351854616 0.6114815790386453
v 0.10195018525569588 0.24999959386699733 0.5311331278278681
v 0.5438666669151917 -0.3749998794771357 0.0044769481838342895
v 0.6396222223050638 -0.37499995982558687 0.08482539939461153
v 0.6396222223050638 -0.3124999598256181 0.08482546189461151
v 0.5438666669151917 -0.31249987947716695 0.004477010683834257
v 0.10195018525569588 -0.37500040613269015 0.5311325028278684
v 0.19770574064556806 -0.3750004864811413 0.6114809540386456
v 0.19770574064556806 -0.31250048648117257 0.6114810165386455
v 0.10195018525569588 -0.3125004061327214 0.5311325653278682
v 0.5438666669151917 -0.31249987947716695 0.004477010683834257
v 0.6396222223050638 -0.3124999598256181 0.08482546189461151
v 0.6396222223050639 0.18750004017413183 0.08482596189461131
v 0.5438666669151917 0.187500120522583 0.004477510683834063
v 0.46351821570437424 -0.3124999752327223 0.10023256607365862
v 0.5592737710942465 -0.3125000555811735 0.18058101728443587
v 0.5592737710942465 0.18749994441857648 0.18058151728443567
v 0.46351821570437424 0.18750002476702765 0.10023306607365842
v 0.18229863646651323 -0.312500310377166 0.4353770099380439
v 0.27805419185638547 -0.3125003907256172 0.5157254611488211
v 0.27805419185638547 0.18749960927413276 0.515725961148821
v 0.18229863646651323 0.18749968962258393 0.4353775099380437
v 0.10195018525569588 -0.3125004061327214 0.5311325653278682
v 0.19770574064556806 -0.31250048648117257 0.6114810165386455
v 0.19770574064556806 0.1874995135185774 0.6114815165386454
v 0.10195018525569588 0.18749959386702858 0.5311330653278681
v 0.4233439900989655 -0.31250002311049996 0.1481103437685708
v 0.5190995454888377 -0.31250010345895113 0.228458794979348
v 0.5190995454888377 0.1874998965407988 0.2284592949793478
v 0.4233439900989655 0.18749997688924996 0.1481108437685706
v 0.3429955388881481 -0.31250011886605533 0.24386589915839518
v 0.43875109427802034 -0.3125001992145065 0.3242143503691724
v 0.43875109427802034 0.18749980078524345 0.3242148503691722
v 0.3429955388881481 0.18749988113369462 0.24386639915839498
v 0.30282131328273937 -0.312500166743833 0.2917436768533073
v 0.3985768686726116 -0.3125002470922842 0.37209212806408454
v 0.3985768686726116 0.1874997529074658 0.37209262806408433
v 0.30282131328273937 0.18749983325591696 0.2917441768533071
v 0.22247286207192196 -0.31250026249938834 0.3874992322431317
v 0.3182284174617942 -0.3125003428478395 0.4678476834539089
v 0.3182284174617942 0.18749965715191044 0.4678481834539087
v 0.22247286207192196 0.1874997375003616 0.3874997322431315
v 0.5190995454888377 0.1874998965407988 0.2284592949793478
v 0.4233439900989655 0.18749997688924996 0.1481108437685706
v 0.5592737710942465 0.18749994441857648 0.18058151728443567
v 0.46351821570437424 0.18750002476702765 0.10023306607365842
v 0.3985768686726116 0.1874997529074658 0.37209262806408433
v 0.30282131328273937 0.18749983325591696 0.2917441768533071
v 0.43875109427802034 0.18749980078524345 0.3242148503691722
v 0.3429955388881481 0.18749988113369462 0.24386639915839498
v 0.27805419185638547 0.18749960927413276 0.515725961148821
v 0.18229863646651323 0.18749968962258393 0.4353775099380437
v 0.3182284174617942 0.18749965715191044 0.4678481834539087
v 0.22247286207192196 0.1874997375003616 0.3874997322431315
v 0.5592737710942465 -0.3125000555811735 0.18058101728443587
v 0.46351821570437424 -0.3124999752327223 0.10023256607365862
v 0.5190995454888377 -0.31250010345895113 0.228458794979348
v 0.4233439900989655 -0.31250002311049996 0.1481103437685708
v 0.43875109427802034 -0.3125001992145065 0.3242143503691724
v 0.3429955388881481 -0.31250011886605533 0.24386589915839518
v 0.3985768686726116 -0.3125002470922842 0.37209212806408454
v 0.30282131328273937 -0.312500166743833 0.2917436768533073
v 0.3182284174617942 -0.3125003428478395 0.4678476834539089
v 0.22247286207192196 -0.31250026249938834 0.3874992322431317
v 0.27805419185638547 -0.3125003907256172 0.5157254611488211
v 0.18229863646651323 -0.312500310377166 0.4353770099380439
v -0.10195018318529647 0.18749958205680467 0.5311330677952616
v -0.19770573857516882 0.1874995017083535 0.611481519006039
v -0.19770573788503576 0.24999950170832136 0.6114815823285076
v -0.10195018249516341 0.24999958205677253 0.5311331311177303
v -0.5438666648447921 0.18750012052258053 0.004477513151239787
v -0.6396222202346644 0.18750004017412933 0.08482596436201706
v -0.6396222195445311 0.25000004017409727 0.08482602768448555
v -0.543866664154659 0.25000012052254844 0.0044775764737085
v -0.10195018939649447 -0.3750004179429065 0.5311324978930447
v -0.1977057447863666 -0.3750004982913577 0.6114809491038219
v -0.19770574409623354 -0.3125004982913898 0.6114810124262906
v -0.10195018870636141 -0.3125004179429387 0.5311325612155136
v -0.5438666710559901 -0.3749998794771307 0.004476943249022591
v -0.6396222264458622 -0.3749999598255819 0.08482539445979986
v -0.6396222257557291 -0.31249995982561396 0.08482545778226847
v -0.543866670365857 -0.31249987947716285 0.004477006571491415
v -0.10195018870636141 -0.3125004179429387 0.5311325612155136
v -0.19770574409623354 -0.3125004982913898 0.6114810124262906
v -0.19770573857516882 0.1874995017083535 0.611481519006039
v -0.10195018318529647 0.18749958205680467 0.5311330677952616
v -0.18229863991717865 -0.31250032004007033 0.4353770058256911
v -0.2780541953070508 -0.3125004003885215 0.5157254570364682
v -0.27805418978598617 0.18749959961122184 0.5157259636162168
v -0.18229863439611393 0.187499679959673 0.4353775124054397
v -0.46351821915503955 -0.3124999773800312 0.10023256196131358
v -0.5592737745449117 -0.31250005772848233 0.18058101317209063
v -0.559273769023847 0.18749994227126104 0.18058151975183923
v -0.46351821363397483 0.1875000226197122 0.10023306854106206
v -0.543866670365857 -0.31249987947716285 0.004477006571491415
v -0.6396222257557291 -0.31249995982561396 0.08482545778226847
v -0.6396222202346644 0.18750004017412933 0.08482596436201706
v -0.5438666648447921 0.18750012052258053 0.004477513151239787
v -0.22247286552258727 -0.3125002710886362 0.3874992281307801
v -0.3182284209124595 -0.3125003514370873 0.4678476793415572
v -0.3182284153913948 0.18749964856265602 0.46784818592130567
v -0.22247286000152244 0.1874997289111072 0.38749973471052845
v -0.30282131673340473 -0.3125001731857679 0.2917436727409578
v -0.39857687212327697 -0.312500253534219 0.3720921239517349
v -0.3985768666022125 0.18749974646552436 0.37209263053148356
v -0.3028213112123399 0.18749982681397553 0.29174417932070623
v -0.3429955423388136 -0.3125001242343337 0.24386589504604672
v -0.4387510977286855 -0.3125002045827848 0.3242143462568239
v -0.438751092207621 0.18749979541695852 0.32421485283657236
v -0.34299553681774886 0.1874998757654097 0.24386640162579526
v -0.42334399354963104 -0.31250002633146534 0.14811033965622455
v -0.5190995489395029 -0.31250010667991646 0.2284587908670016
v -0.5190995434184384 0.18749989331982686 0.2284592974467503
v -0.4233439880285661 0.18749997366827803 0.14811084623597304
v -0.3182284153913948 0.18749964856265602 0.46784818592130567
v -0.22247286000152244 0.1874997289111072 0.38749973471052845
v -0.27805418978598617 0.18749959961122184 0.5157259636162168
v -0.18229863439611393 0.187499679959673 0.4353775124054397
v -0.438751092207621 0.18749979541695852 0.32421485283657236
v -0.34299553681774886 0.1874998757654097 0.24386640162579526
v -0.3985768666022125 0.18749974646552436 0.37209263053148356
v -0.3028213112123399 0.18749982681397553 0.29174417932070623
v -0.559273769023847 0.18749994227126104 0.18058151975183923
v -0.46351821363397483 0.1875000226197122 0.10023306854106206
v -0.5190995434184384 0.18749989331982686 0.2284592974467503
v -0.4233439880285661 0.18749997366827803 0.14811084623597304
v -0.2780541953070508 -0.3125004003885215 0.5157254570364682
v -0.18229863991717865 -0.31250032004007033 0.4353770058256911
v -0.3182284209124595 -0.3125003514370873 0.4678476793415572
v -0.22247286552258727 -0.3125002710886362 0.3874992281307801
v -0.39857687212327697 -0.312500253534219 0.3720921239517349
v -0.30282131673340473 -0.3125001731857679 0.2917436727409578
v -0.4387510977286855 -0.3125002045827848 0.3242143462568239
v -0.3429955423388136 -0.3125001242343337 0.24386589504604672
v -0.5190995489395029 -0.31250010667991646 0.2284587908670016
v -0.42334399354963104 -0.31250002633146534 0.14811033965622455
v -0.5592737745449117 -0.31250005772848233 0.18058101317209063
v -0.46351821915503955 -0.3124999773800312 0.10023256196131358
vt 0.125 0.625
vt 0 0.625
vt 0 0.6875
vt 0.125 0.6875
vt 0 0.625
vt 0.125 0.625
vt 0.125 0.6875
vt 0 0.6875
vt 0.125 0.9375
vt 0.125 1
vt 0.8125 1
vt 0.8125 0.9375
vt 0.875 0.6875
vt 0.875 0.75
vt 0.1875 0.75
vt 0.1875 0.6875
vt 0.125 0.0625
vt 0 0.0625
vt 0 0.125
vt 0.125 0.125
vt 0 0.0625
vt 0.125 0.0625
vt 0.125 0.125
vt 0 0.125
vt 0.1875 0
vt 0.1875 0.0625
vt 0.875 0.0625
vt 0.875 0
vt 0.875 0
vt 0.875 0.0625
vt 0.1875 0.0625
vt 0.1875 0
vt 0.375 0.125
vt 0.25 0.125
vt 0.25 0.625
vt 0.375 0.625
vt 0.75 0.125
vt 0.875 0.125
vt 0.875 0.625
vt 0.75 0.625
vt 0 0.125
vt 0 0.625
vt 0.125 0.625
vt 0.125 0.125
vt 1 0.125
vt 1 0.625
vt 0.875 0.625
vt 0.875 0.125
vt 0.875 0.1875
vt 0.75 0.1875
vt 0.75 0.6875
vt 0.875 0.6875
vt 0 0.125
vt 0.125 0.125
vt 0.125 0.625
vt 0 0.625
vt 0.875 0.125
vt 0.875 0.625
vt 1 0.625
vt 1 0.125
vt 0.125 0.125
vt 0.125 0.625
vt 0 0.625
vt 0 0.125
vt 0.5 0.125
vt 0.375 0.125
vt 0.375 0.625
vt 0.5 0.625
vt 0.5 0.125
vt 0.625 0.125
vt 0.625 0.625
vt 0.5 0.625
vt 0.25 0.125
vt 0.25 0.625
vt 0.375 0.625
vt 0.375 0.125
vt 0.625 0.125
vt 0.625 0.625
vt 0.5 0.625
vt 0.5 0.125
vt 0.625 0.125
vt 0.5 0.125
vt 0.5 0.625
vt 0.625 0.625
vt 0.25 0.125
vt 0.375 0.125
vt 0.375 0.625
vt 0.25 0.625
vt 0.625 0.125
vt 0.625 0.625
vt 0.75 0.625
vt 0.75 0.125
vt 0.375 0.125
vt 0.375 0.625
vt 0.25 0.625
vt 0.25 0.125
vt 0.25 0.5625
vt 0.25 0.4375
vt 0.3125 0.4375
vt 0.3125 0.5625
vt 0.5 0.5625
vt 0.5 0.4375
vt 0.5625 0.4375
vt 0.5625 0.5625
vt 0.8125 0.5625
vt 0.8125 0.4375
vt 0.875 0.4375
vt 0.875 0.5625
vt 0.1875 0.4375
vt 0.1875 0.5625
vt 0.125 0.5625
vt 0.125 0.4375
vt 0.5625 0.4375
vt 0.5625 0.5625
vt 0.5 0.5625
vt 0.5 0.4375
vt 0.8125 0.4375
vt 0.8125 0.5625
vt 0.75 0.5625
vt 0.75 0.4375
vt 0.125 0.625
vt 0 0.625
vt 0 0.6875
vt 0.125 0.6875
vt 0 0.625
vt 0.125 0.625
vt 0.125 0.6875
vt 0 0.6875
vt 0.125 0.9375
vt 0.125 1
vt 0.8125 1
vt 0.8125 0.9375
vt 0.875 0.6875
vt 0.875 0.75
vt 0.1875 0.75
vt 0.1875 0.6875
vt 0.125 0.0625
vt 0 0.0625
vt 0 0.125
vt 0.125 0.125
vt 0 0.0625
vt 0.125 0.0625
vt 0.125 0.125
vt 0 0.125
vt 0.1875 0
vt 0.1875 0.0625
vt 0.875 0.0625
vt 0.875 0
vt 0.875 0
vt 0.875 0.0625
vt 0.1875 0.0625
vt 0.1875 0
vt 0.375 0.125
vt 0.25 0.125
vt 0.25 0.625
vt 0.375 0.625
vt 0.75 0.125
vt 0.875 0.125
vt 0.875 0.625
vt 0.75 0.625
vt 0 0.125
vt 0 0.625
vt 0.125 0.625
vt 0.125 0.125
vt 1 0.125
vt 1 0.625
vt 0.875 0.625
vt 0.875 0.125
vt 0.875 0.1875
vt 0.75 0.1875
vt 0.75 0.6875
vt 0.875 0.6875
vt 0 0.125
vt 0.125 0.125
vt 0.125 0.625
vt 0 0.625
vt 0.875 0.125
vt 0.875 0.625
vt 1 0.625
vt 1 0.125
vt 0.125 0.125
vt 0.125 0.625
vt 0 0.625
vt 0 0.125
vt 0.5 0.125
vt 0.375 0.125
vt 0.375 0.625
vt 0.5 0.625
vt 0.5 0.125
vt 0.625 0.125
vt 0.625 0.625
vt 0.5 0.625
vt 0.25 0.125
vt 0.25 0.625
vt 0.375 0.625
vt 0.375 0.125
vt 0.625 0.125
vt 0.625 0.625
vt 0.5 0.625
vt 0.5 0.125
vt 0.625 0.125
vt 0.5 0.125
vt 0.5 0.625
vt 0.625 0.625
vt 0.25 0.125
vt 0.375 0.125
vt 0.375 0.625
vt 0.25 0.625
vt 0.625 0.125
vt 0.625 0.625
vt 0.75 0.625
vt 0.75 0.125
vt 0.375 0.125
vt 0.375 0.625
vt 0.25 0.625
vt 0.25 0.125
vt 0.25 0.5625
vt 0.25 0.4375
vt 0.3125 0.4375
vt 0.3125 0.5625
vt 0.5 0.5625
vt 0.5 0.4375
vt 0.5625 0.4375
vt 0.5625 0.5625
vt 0.8125 0.5625
vt 0.8125 0.4375
vt 0.875 0.4375
vt 0.875 0.5625
vt 0.1875 0.4375
vt 0.1875 0.5625
vt 0.125 0.5625
vt 0.125 0.4375
vt 0.5625 0.4375
vt 0.5625 0.5625
vt 0.5 0.5625
vt 0.5 0.4375
vt 0.8125 0.4375
vt 0.8125 0.5625
vt 0.75 0.5625
vt 0.75 0.4375
vn -0.6427876096865394 -7.660444427893233e-7 0.7660444431185949
vn -0.6427876096865394 -7.660444427893233e-7 0.7660444431185949
vn 0.7660444431189779 -6.427876094341325e-7 0.642787609686218
vn 0.7660444431189779 -6.427876094341325e-7 0.642787609686218
vn -0.6427876096865394 -7.660444427893233e-7 0.7660444431185949
vn -0.6427876096865394 -7.660444427893233e-7 0.7660444431185949
vn 0.7660444431189779 -6.427876094341325e-7 0.642787609686218
vn 0.7660444431189779 -6.427876094341325e-7 0.642787609686218
vn -0.6427876096865394 -7.660444427893233e-7 0.7660444431185949
vn -0.6427876096865394 -7.660444427893233e-7 0.7660444431185949
vn 0.7660444431189779 -6.427876094341325e-7 0.642787609686218
vn 0.7660444431189779 -6.427876094341325e-7 0.642787609686218
vn -0.6427876096865394 -7.660444427893233e-7 0.7660444431185949
vn -0.6427876096865394 -7.660444427893233e-7 0.7660444431185949
vn 0.7660444431189779 -6.427876094341325e-7 0.642787609686218
vn 0.7660444431189779 -6.427876094341325e-7 0.642787609686218
vn -0.6427876096865394 -7.660444427893233e-7 0.7660444431185949
vn -0.6427876096865394 -7.660444427893233e-7 0.7660444431185949
vn 0.7660444431189779 -6.427876094341325e-7 0.642787609686218
vn 0.7660444431189779 -6.427876094341325e-7 0.642787609686218
vn -0.6427876096865394 -7.660444427893233e-7 0.7660444431185949
vn -0.6427876096865394 -7.660444427893233e-7 0.7660444431185949
vn 0.7660444431189779 -6.427876094341325e-7 0.642787609686218
vn 0.7660444431189779 -6.427876094341325e-7 0.642787609686218
vn -1.854271588569911e-17 -0.9999999999995 -9.99999999585226e-7
vn -1.854271588569911e-17 -0.9999999999995 -9.99999999585226e-7
vn -1.854271588569911e-17 -0.9999999999995 -9.99999999585226e-7
vn 1.854271588569911e-17 0.9999999999995 9.99999999585226e-7
vn 1.854271588569911e-17 0.9999999999995 9.99999999585226e-7
vn 1.854271588569911e-17 0.9999999999995 9.99999999585226e-7
vn -0.6427876096865393 7.832229475429734e-7 -0.7660444431185779
vn -0.6427876096865395 7.83222947820529e-7 -0.7660444431185777
vn -0.766044443118978 -6.427876118261762e-7 0.6427876096862181
vn -0.7660444431189781 -6.427876116719454e-7 0.6427876096862177
vn -0.6427876096865389 7.832229475429734e-7 -0.7660444431185779
vn -0.6427876096865395 7.83222947820529e-7 -0.7660444431185777
vn -0.7660444431189781 -6.427876118261761e-7 0.642787609686218
vn -0.7660444431189781 -6.427876116719454e-7 0.6427876096862177
vn -0.6427876096865394 7.832229465576503e-7 -0.7660444431185777
vn -0.6427876096865394 7.832229467380615e-7 -0.7660444431185777
vn -0.7660444431189773 -6.42787608687664e-7 0.6427876096862186
vn -0.7660444431189779 -6.427876091442847e-7 0.642787609686218
vn -0.6427876096865393 7.832229467450007e-7 -0.7660444431185779
vn -0.6427876096865393 7.832229467450006e-7 -0.7660444431185779
vn -0.7660444431189785 -6.427876093436766e-7 0.6427876096862174
vn -0.7660444431189779 -6.427876095623485e-7 0.6427876096862182
vn -0.6427876096865394 7.832229465229558e-7 -0.7660444431185777
vn -0.6427876096865387 7.832229467450008e-7 -0.7660444431185781
vn -0.7660444431189778 -6.427876091250059e-7 0.6427876096862181
vn -0.7660444431189778 -6.427876096009061e-7 0.6427876096862181
vn -0.6427876096865394 7.832229467380615e-7 -0.7660444431185777
vn -0.6427876096865393 7.832229467450007e-7 -0.7660444431185779
vn -0.7660444431189785 -6.427876095237902e-7 0.6427876096862174
vn -0.7660444431189779 -6.427876095623483e-7 0.642787609686218
vn -1.104212951226634e-8 -0.9999999999994867 -0.000001013159497079255
vn -1.1042129396907352e-8 -0.9999999999994869 -0.0000010131594965963355
vn -1.1042129682362402e-8 -0.9999999999994869 -0.0000010131594969365276
vn 1.1042129512266364e-8 0.9999999999994869 0.000001013159497079255
vn 1.1042129512266331e-8 0.9999999999994867 0.000001013159497079255
vn 1.1042128941356275e-8 0.9999999999994869 0.0000010131594963988707
usemtl m_f5306224-599a-91bc-b705-12fb00cc7a52
f 113/241/61 114/242/61 115/243/61 116/244/61
f 117/245/62 118/246/62 119/247/62 120/248/62
f 113/249/63 116/250/63 120/251/63 117/252/63
f 114/253/64 115/254/64 119/255/64 118/256/64
f 121/257/65 122/258/65 123/259/65 124/260/65
f 125/261/66 126/262/66 127/263/66 128/264/66
f 121/265/67 124/266/67 128/267/67 125/268/67
f 122/269/68 123/270/68 127/271/68 126/272/68
f 129/273/69 130/274/69 131/275/69 132/276/69
f 133/277/70 134/278/70 135/279/70 136/280/70
f 129/281/71 132/282/71 136/283/71 133/284/71
f 130/285/72 131/286/72 135/287/72 134/288/72
f 137/289/73 138/290/73 139/291/73 140/292/73
f 141/293/74 142/294/74 143/295/74 144/296/74
f 137/297/75 140/298/75 144/299/75 141/300/75
f 138/301/76 139/302/76 143/303/76 142/304/76
f 145/305/77 146/306/77 147/307/77 148/308/77
f 149/309/78 150/310/78 151/311/78 152/312/78
f 145/313/79 148/314/79 152/315/79 149/316/79
f 146/317/80 147/318/80 151/319/80 150/320/80
f 153/321/81 154/322/81 155/323/81 156/324/81
f 157/325/82 158/326/82 159/327/82 160/328/82
f 153/329/83 156/330/83 160/331/83 157/332/83
f 154/333/84 155/334/84 159/335/84 158/336/84
f 161/337/85 162/338/85 164/339/85 163/340/85
f 165/341/86 166/342/86 168/343/86 167/344/86
f 169/345/87 170/346/87 172/347/87 171/348/87
f 173/349/88 174/350/88 176/351/88 175/352/88
f 177/353/89 178/354/89 180/355/89 179/356/89
f 181/357/90 182/358/90 184/359/90 183/360/90
f 185/361/91 186/362/91 187/363/91 188/364/91
f 189/365/92 190/366/92 191/367/92 192/368/92
f 185/369/93 188/370/93 192/371/93 189/372/93
f 186/373/94 187/374/94 191/375/94 190/376/94
f 193/377/95 194/378/95 195/379/95 196/380/95
f 197/381/96 198/382/96 199/383/96 200/384/96
f 193/385/97 196/386/97 200/387/97 197/388/97
f 194/389/98 195/390/98 199/391/98 198/392/98
f 201/393/99 202/394/99 203/395/99 204/396/99
f 205/397/100 206/398/100 207/399/100 208/400/100
f 201/401/101 204/402/101 208/403/101 205/404/101
f 202/405/102 203/406/102 207/407/102 206/408/102
f 209/409/103 210/410/103 211/411/103 212/412/103
f 213/413/104 214/414/104 215/415/104 216/416/104
f 209/417/105 212/418/105 216/419/105 213/420/105
f 210/421/106 211/422/106 215/423/106 214/424/106
f 217/425/107 218/426/107 219/427/107 220/428/107
f 221/429/108 222/430/108 223/431/108 224/432/108
f 217/433/109 220/434/109 224/435/109 221/436/109
f 218/437/110 219/438/110 223/439/110 222/440/110
f 225/441/111 226/442/111 227/443/111 228/444/111
f 229/445/112 230/446/112 231/447/112 232/448/112
f 225/449/113 228/450/113 232/451/113 229/452/113
f 226/453/114 227/454/114 231/455/114 230/456/114
f 233/457/115 234/458/115 236/459/115 235/460/115
f 237/461/116 238/462/116 240/463/116 239/464/116
f 241/465/117 242/466/117 244/467/117 243/468/117
f 245/469/118 246/470/118 248/471/118 247/472/118
f 249/473/119 250/474/119 252/475/119 251/476/119
f 253/477/120 254/478/120 256/479/120 255/480/120
