# Made in Blockbench 5.1.6
mtllib balustrade_gate_open.mtl

g railings
v 0.4375 0.249999999999875 0.12500024999999987
v 0.6875 0.249999999999875 0.1250002499999999
v 0.6875 0.31249999999984374 0.12500031249999988
v 0.4375 0.31249999999984374 0.12500031249999985
v 0.43749999999999994 0.24999931249987528 0.8125002499996562
v 0.6874999999999999 0.24999931249987528 0.8125002499996562
v 0.6874999999999999 0.31249931249984403 0.8125003124996562
v 0.43749999999999994 0.31249931249984403 0.8125003124996562
v 0.4375 -0.43749999999978123 0.12499956250000016
v 0.6875 -0.43749999999978123 0.12499956250000019
v 0.6875 -0.3749999999998125 0.12499962500000016
v 0.4375 -0.3749999999998125 0.12499962500000013
v 0.43749999999999994 -0.43750068749978094 0.8124995624996565
v 0.6874999999999999 -0.43750068749978094 0.8124995624996565
v 0.6874999999999999 -0.3750006874998122 0.8124996249996564
v 0.43749999999999994 -0.3750006874998122 0.8124996249996564
v 0.4999999999999999 0.24999931249987528 0.8125002499996562
v 0.43749999999999994 0.24999931249987528 0.8125002499996562
v 0.5 0.249999999999875 0.12500024999999987
v 0.4375 0.249999999999875 0.12500024999999987
v 0.6874999999999999 0.24999931249987528 0.8125002499996562
v 0.6249999999999999 0.24999931249987528 0.8125002499996562
v 0.6875 0.249999999999875 0.1250002499999999
v 0.625 0.249999999999875 0.1250002499999999
v 0.6875 -0.3749999999998125 0.12499962500000016
v 0.625 -0.3749999999998125 0.12499962500000016
v 0.6874999999999999 -0.3750006874998122 0.8124996249996564
v 0.6249999999999999 -0.3750006874998122 0.8124996249996564
v 0.5 -0.3749999999998125 0.12499962500000014
v 0.4375 -0.3749999999998125 0.12499962500000013
v 0.4999999999999999 -0.3750006874998122 0.8124996249996564
v 0.43749999999999994 -0.3750006874998122 0.8124996249996564
v -0.4375 0.24999930068964954 0.8125002542942705
v -0.6875 0.24999930068964954 0.8125002542942705
v -0.6875 0.3124993006896172 0.8125003178679271
v -0.4375 0.3124993006896172 0.8125003178679269
v -0.4375 0.2499999999998707 0.12500025429462588
v -0.6875 0.2499999999998707 0.12500025429462588
v -0.6875 0.31249999999983835 0.12500031786828236
v -0.4375 0.31249999999983835 0.12500031786828236
v -0.4375 -0.4375006993099949 0.8124995549840495
v -0.6875 -0.4375006993099949 0.8124995549840495
v -0.6875 -0.3750006993100272 0.812499618557706
v -0.4375 -0.3750006993100272 0.8124996185577058
v -0.4375 -0.43749999999977374 0.12499955498440472
v -0.6875 -0.43749999999977374 0.12499955498440472
v -0.6875 -0.3749999999998061 0.12499961855806119
v -0.4375 -0.3749999999998061 0.12499961855806119
v -0.5 0.2499999999998707 0.12500025429462588
v -0.4375 0.2499999999998707 0.12500025429462588
v -0.5 0.24999930068964954 0.8125002542942705
v -0.4375 0.24999930068964954 0.8125002542942705
v -0.6875 0.2499999999998707 0.12500025429462588
v -0.625 0.2499999999998707 0.1250002542946259
v -0.6875 0.24999930068964954 0.8125002542942705
v -0.625 0.24999930068964954 0.8125002542942705
v -0.6875 -0.3750006993100272 0.812499618557706
v -0.625 -0.3750006993100272 0.812499618557706
v -0.6875 -0.3749999999998061 0.12499961855806119
v -0.625 -0.3749999999998061 0.1249996185580612
v -0.5 -0.3750006993100272 0.8124996185577058
v -0.4375 -0.3750006993100272 0.8124996185577058
v -0.5 -0.3749999999998061 0.1249996185580612
v -0.4375 -0.3749999999998061 0.12499961855806119
v -0.6875 0.25 0.0625
v -0.6875 0.25000000000000006 -0.0625
v -0.6875 -0.3750000000000001 0.0625
v -0.6875 -0.37500000000000006 -0.0625
v -0.8125 0.25 0.0625
v -0.8125 0.25000000000000006 -0.0625
v -0.8125 -0.3750000000000001 0.0625
v -0.8125 -0.37500000000000006 -0.06250000000000003
v -0.6875 0.3125 0.125
v -0.6875 0.3125 -0.12500000000000006
v -0.6875 0.25000000000000006 0.125
v -0.6875 0.25000000000000006 -0.12500000000000006
v -0.8125 0.3125 0.125
v -0.8125 0.3125 -0.12500000000000006
v -0.8125 0.25000000000000006 0.125
v -0.8125 0.25000000000000006 -0.12500000000000006
v -0.6875 -0.37500000000000006 0.125
v -0.6875 -0.3750000000000001 -0.12500000000000006
v -0.6875 -0.43750000000000006 0.125
v -0.6875 -0.4375000000000001 -0.125
v -0.8125 -0.37500000000000006 0.12500000000000003
v -0.8125 -0.3750000000000001 -0.12500000000000006
v -0.8125 -0.43750000000000006 0.125
v -0.8125 -0.4375000000000001 -0.125
v 0.8124999999999999 0.25 0.062499999999999986
v 0.8124999999999999 0.25000000000000006 -0.0625
v 0.8124999999999999 -0.3750000000000001 0.0625
v 0.8124999999999999 -0.37500000000000006 -0.06250000000000003
v 0.6874999999999999 0.25 0.0625
v 0.6874999999999999 0.25000000000000006 -0.0625
v 0.6874999999999999 -0.3750000000000001 0.0625
v 0.6874999999999999 -0.37500000000000006 -0.06250000000000003
v 0.8124999999999999 0.3125 0.125
v 0.8124999999999999 0.3125 -0.12500000000000006
v 0.8124999999999999 0.25000000000000006 0.125
v 0.8124999999999999 0.25000000000000006 -0.125
v 0.6874999999999999 0.3125 0.125
v 0.6874999999999999 0.3125 -0.125
v 0.6874999999999999 0.25000000000000006 0.125
v 0.6874999999999999 0.25000000000000006 -0.125
v 0.8124999999999999 -0.37500000000000006 0.125
v 0.8124999999999999 -0.3750000000000001 -0.12500000000000006
v 0.8124999999999999 -0.43750000000000006 0.125
v 0.8124999999999999 -0.4375000000000001 -0.12500000000000006
v 0.6874999999999999 -0.37500000000000006 0.12500000000000003
v 0.6874999999999999 -0.3750000000000001 -0.12500000000000006
v 0.6874999999999999 -0.43750000000000006 0.125
v 0.6874999999999999 -0.4375000000000001 -0.125
vt 0.625 0.9375
vt 0.375 0.9375
vt 0.375 1
vt 0.625 1
vt 0.375 0.875
vt 0.625 0.875
vt 0.625 0.9375
vt 0.375 0.9375
vt 0 0.75
vt 0 0.8125
vt 0.6875 0.8125
vt 0.6875 0.75
vt 1 0.6875
vt 1 0.75
vt 0.3125 0.75
vt 0.3125 0.6875
vt 0 0.375
vt 0.6875 0.375
vt 0.6875 0.625
vt 0 0.625
vt 0.625 0
vt 0.375 0
vt 0.375 0.0625
vt 0.625 0.0625
vt 0.3125 0.0625
vt 0.5625 0.0625
vt 0.5625 0.125
vt 0.3125 0.125
vt 0 0.0625
vt 0 0.125
vt 0.6875 0.125
vt 0.6875 0.0625
vt 1 0.0625
vt 1 0.125
vt 0.3125 0.125
vt 0.3125 0.0625
vt 1 0.375
vt 1 0.625
vt 0.3125 0.625
vt 0.3125 0.375
vt 0.3125 0.6875
vt 0.3125 0.625
vt 1 0.625
vt 1 0.6875
vt 0.3125 0.375
vt 0.3125 0.3125
vt 1 0.3125
vt 1 0.375
vt 0.6875 0.3125
vt 0.6875 0.375
vt 0 0.375
vt 0 0.3125
vt 0.6875 0.625
vt 0.6875 0.6875
vt 0 0.6875
vt 0 0.625
vt 0.625 0.9375
vt 0.375 0.9375
vt 0.375 1
vt 0.625 1
vt 0.375 0.875
vt 0.625 0.875
vt 0.625 0.9375
vt 0.375 0.9375
vt 0 0.75
vt 0 0.8125
vt 0.6875 0.8125
vt 0.6875 0.75
vt 1 0.6875
vt 1 0.75
vt 0.3125 0.75
vt 0.3125 0.6875
vt 0 0.375
vt 0.6875 0.375
vt 0.6875 0.625
vt 0 0.625
vt 0.625 0
vt 0.375 0
vt 0.375 0.0625
vt 0.625 0.0625
vt 0.3125 0.0625
vt 0.5625 0.0625
vt 0.5625 0.125
vt 0.3125 0.125
vt 0 0.0625
vt 0 0.125
vt 0.6875 0.125
vt 0.6875 0.0625
vt 1 0.0625
vt 1 0.125
vt 0.3125 0.125
vt 0.3125 0.0625
vt 1 0.375
vt 1 0.625
vt 0.3125 0.625
vt 0.3125 0.375
vt 0.3125 0.6875
vt 0.3125 0.625
vt 1 0.625
vt 1 0.6875
vt 0.3125 0.375
vt 0.3125 0.3125
vt 1 0.3125
vt 1 0.375
vt 0.6875 0.3125
vt 0.6875 0.375
vt 0 0.375
vt 0 0.3125
vt 0.6875 0.625
vt 0.6875 0.6875
vt 0 0.6875
vt 0 0.625
vt 0.5625 0.75
vt 0.4375 0.75
vt 0.4375 0.125
vt 0.5625 0.125
vt 0.75 0.0625
vt 0.75 0.6875
vt 0.625 0.6875
vt 0.625 0.0625
vt 0.9375 0
vt 0.9375 0.625
vt 0.8125 0.625
vt 0.8125 0
vt 0.125 0.6875
vt 0 0.6875
vt 0 0.0625
vt 0.125 0.0625
vt 0.875 0.6875
vt 0.625 0.6875
vt 0.625 0.625
vt 0.875 0.625
vt 0.625 0.75
vt 0.625 0.8125
vt 0.375 0.8125
vt 0.375 0.75
vt 0.3125 0.4375
vt 0.4375 0.4375
vt 0.4375 0.6875
vt 0.3125 0.6875
vt 0.4375 0.4375
vt 0.4375 0.6875
vt 0.3125 0.6875
vt 0.3125 0.4375
vt 0.6875 0.5625
vt 0.6875 0.625
vt 0.5625 0.625
vt 0.5625 0.5625
vt 0.6875 0.625
vt 0.5625 0.625
vt 0.5625 0.5625
vt 0.6875 0.5625
vt 0.875 0.6875
vt 0.625 0.6875
vt 0.625 0.625
vt 0.875 0.625
vt 0.625 0.75
vt 0.625 0.8125
vt 0.375 0.8125
vt 0.375 0.75
vt 0.3125 0.4375
vt 0.4375 0.4375
vt 0.4375 0.6875
vt 0.3125 0.6875
vt 0.4375 0.4375
vt 0.4375 0.6875
vt 0.3125 0.6875
vt 0.3125 0.4375
vt 0.6875 0.5625
vt 0.6875 0.625
vt 0.5625 0.625
vt 0.5625 0.5625
vt 0.6875 0.625
vt 0.5625 0.625
vt 0.5625 0.5625
vt 0.6875 0.5625
vt 0.75 0.6875
vt 0.625 0.6875
vt 0.625 0.0625
vt 0.75 0.0625
vt 0.5625 0.125
vt 0.5625 0.75
vt 0.4375 0.75
vt 0.4375 0.125
vt 0.9375 0
vt 0.9375 0.625
vt 0.8125 0.625
vt 0.8125 0
vt 0.125 0.6875
vt 0 0.6875
vt 0 0.0625
vt 0.125 0.0625
vt 0.625 0.8125
vt 0.375 0.8125
vt 0.375 0.75
vt 0.625 0.75
vt 0.875 0.625
vt 0.875 0.6875
vt 0.625 0.6875
vt 0.625 0.625
vt 0.3125 0.4375
vt 0.4375 0.4375
vt 0.4375 0.6875
vt 0.3125 0.6875
vt 0.4375 0.4375
vt 0.4375 0.6875
vt 0.3125 0.6875
vt 0.3125 0.4375
vt 0.6875 0.5625
vt 0.6875 0.625
vt 0.5625 0.625
vt 0.5625 0.5625
vt 0.6875 0.625
vt 0.5625 0.625
vt 0.5625 0.5625
vt 0.6875 0.5625
vt 0.625 0.8125
vt 0.375 0.8125
vt 0.375 0.75
vt 0.625 0.75
vt 0.875 0.625
vt 0.875 0.6875
vt 0.625 0.6875
vt 0.625 0.625
vt 0.3125 0.4375
vt 0.4375 0.4375
vt 0.4375 0.6875
vt 0.3125 0.6875
vt 0.4375 0.4375
vt 0.4375 0.6875
vt 0.3125 0.6875
vt 0.3125 0.4375
vt 0.6875 0.5625
vt 0.6875 0.625
vt 0.5625 0.625
vt 0.5625 0.5625
vt 0.6875 0.625
vt 0.5625 0.625
vt 0.5625 0.5625
vt 0.6875 0.5625
vn -1.110223024626719e-16 -9.99999999578477e-7 0.9999999999995
vn -1.110223024626719e-16 -9.99999999578477e-7 0.9999999999995
vn 1 -1.1102230241571722e-22 1.1102230246246016e-16
vn 1 -1.1102230241571722e-22 1.1102230246246016e-16
vn 1.00735934397752e-22 0.9999999999995 9.99999999578477e-7
vn -1.110223024626719e-16 -9.99999999578477e-7 0.9999999999995
vn -1.110223024626719e-16 -9.99999999578477e-7 0.9999999999995
vn 1 -1.1102230241571722e-22 1.1102230246246016e-16
vn 1 -1.1102230241571722e-22 1.1102230246246016e-16
vn -1.00735934397752e-22 -0.9999999999995 -9.99999999578477e-7
vn -1.00735934397752e-22 -0.9999999999995 -9.99999999578477e-7
vn -1.00735934397752e-22 -0.9999999999995 -9.99999999578477e-7
vn 1.00735934397752e-22 0.9999999999995 9.99999999578477e-7
vn 1.00735934397752e-22 0.9999999999995 9.99999999578477e-7
vn 1.110223024626736e-16 0.000001017178503531132 -0.9999999999994826
vn 1.5799404817379573e-28 0.0000010171785035311323 -0.9999999999994827
vn -1 1.1102230241571722e-22 -1.1102230246246016e-16
vn -1 1.1102230241571722e-22 -1.1102230246246016e-16
vn 1.1807948613729722e-22 0.9999999999994826 0.000001017178503531132
vn 1.1102230246267362e-16 0.0000010171785035311323 -0.9999999999994827
vn 1.5798172222215165e-28 0.0000010171785035311323 -0.9999999999994826
vn -1 1.1102230241571722e-22 -1.1102230246246016e-16
vn -1 1.1102230241571722e-22 -1.1102230246246016e-16
vn -9.882873733606313e-23 -0.9999999999994826 -0.000001017178503531132
vn -9.882873734054529e-23 -0.9999999999994826 -0.0000010171785034907603
vn -9.882873734054529e-23 -0.9999999999994826 -0.0000010171785034907603
vn 9.882873734502745e-23 0.9999999999994826 0.0000010171785034503886
vn 9.882873734502745e-23 0.9999999999994826 0.0000010171785034503886
vn 1 -1.1102230241571722e-22 1.1102230246246016e-16
vn -1 1.1102230241571722e-22 -1.1102230246246016e-16
vn 1.1102230246251553e-16 6.1890579873503575e-18 1
vn 1.1102230246251565e-16 1.6015063691973867e-17 -1
vn 1 -1.1102230241571722e-22 1.1102230246246016e-16
vn -1 1.1102230241571722e-22 -1.1102230246246016e-16
vn 1.0073593439785791e-22 1 -1.172115722081028e-16
vn 2.1175823681288775e-22 -1 6.189269745587171e-18
vn 4.9303806576313227e-32 1.1721241924105006e-16 1
vn 1.1102230246251565e-16 3.2687636709253886e-16 -1
vn 1 -1.1102230241571722e-22 1.1102230246246016e-16
vn -1 1.1102230241571722e-22 -1.1102230246246016e-16
vn -1.0286368030872358e-23 1 -1.172115722081028e-16
vn -2.117582368265882e-22 -1 1.172115722081028e-16
vn 1.1102230246251565e-16 1.1721199572457643e-16 1
vn 1.1102230246251565e-16 -1.1721199572457643e-16 -1
vn 1 -1.1102230241571722e-22 1.1102230246246016e-16
vn -1 1.1102230241571722e-22 -1.1102230246246016e-16
vn 1.1102230246251553e-16 6.1890579873503575e-18 1
vn 1.1102230246251565e-16 1.6015063691973867e-17 -1
vn 1 -1.1102230241571722e-22 1.1102230246246016e-16
vn -1 1.1102230241571722e-22 -1.1102230246246016e-16
vn 1.0073593439785791e-22 1 -1.172115722081028e-16
vn 2.117582368128878e-22 -1 6.1894815038239846e-18
vn 4.9303806576313227e-32 1.1721241924105006e-16 1
vn -3.3306690738732485e-16 -5.613020526075862e-16 -1
vn 1 -1.1102230241571722e-22 1.1102230246246016e-16
vn -1 1.1102230241571722e-22 -1.1102230246246016e-16
vn -1.0286368030872358e-23 1 -1.172115722081028e-16
vn -2.117582368265882e-22 -1 1.172115722081028e-16
vn 1.1102230246251565e-16 1.1721199572457643e-16 1
vn 1.1102230246251565e-16 -1.1721199572457643e-16 -1
usemtl m_e98ce801-216c-e472-d335-eeb613367751
f 1/1/1 2/2/1 3/3/1 4/4/1
f 5/5/2 6/6/2 7/7/2 8/8/2
f 1/9/3 4/10/3 8/11/3 5/12/3
f 2/13/4 3/14/4 7/15/4 6/16/4
f 7/17/5 3/18/5 4/19/5 8/20/5
f 9/21/6 10/22/6 11/23/6 12/24/6
f 13/25/7 14/26/7 15/27/7 16/28/7
f 9/29/8 12/30/8 16/31/8 13/32/8
f 10/33/9 11/34/9 15/35/9 14/36/9
f 9/37/10 10/38/10 14/39/10 13/40/10
f 17/41/11 18/42/11 20/43/11 19/44/11
f 21/45/12 22/46/12 24/47/12 23/48/12
f 25/49/13 26/50/13 28/51/13 27/52/13
f 29/53/14 30/54/14 32/55/14 31/56/14
f 33/57/15 34/58/15 35/59/15 36/60/15
f 37/61/16 38/62/16 39/63/16 40/64/16
f 33/65/17 36/66/17 40/67/17 37/68/17
f 34/69/18 35/70/18 39/71/18 38/72/18
f 39/73/19 35/74/19 36/75/19 40/76/19
f 41/77/20 42/78/20 43/79/20 44/80/20
f 45/81/21 46/82/21 47/83/21 48/84/21
f 41/85/22 44/86/22 48/87/22 45/88/22
f 42/89/23 43/90/23 47/91/23 46/92/23
f 41/93/24 42/94/24 46/95/24 45/96/24
f 49/97/25 50/98/25 52/99/25 51/100/25
f 53/101/26 54/102/26 56/103/26 55/104/26
f 57/105/27 58/106/27 60/107/27 59/108/27
f 61/109/28 62/110/28 64/111/28 63/112/28
f 66/113/29 65/114/29 67/115/29 68/116/29
f 71/117/30 69/118/30 70/119/30 72/120/30
f 67/121/31 65/122/31 69/123/31 71/124/31
f 70/125/32 66/126/32 68/127/32 72/128/32
f 74/129/33 73/130/33 75/131/33 76/132/33
f 79/133/34 77/134/34 78/135/34 80/136/34
f 77/137/35 73/138/35 74/139/35 78/140/35
f 76/141/36 75/142/36 79/143/36 80/144/36
f 75/145/37 73/146/37 77/147/37 79/148/37
f 78/149/38 74/150/38 76/151/38 80/152/38
f 82/153/39 81/154/39 83/155/39 84/156/39
f 87/157/40 85/158/40 86/159/40 88/160/40
f 85/161/41 81/162/41 82/163/41 86/164/41
f 84/165/42 83/166/42 87/167/42 88/168/42
f 83/169/43 81/170/43 85/171/43 87/172/43
f 86/173/44 82/174/44 84/175/44 88/176/44
f 90/177/45 89/178/45 91/179/45 92/180/45
f 95/181/46 93/182/46 94/183/46 96/184/46
f 91/185/47 89/186/47 93/187/47 95/188/47
f 94/189/48 90/190/48 92/191/48 96/192/48
f 98/193/49 97/194/49 99/195/49 100/196/49
f 103/197/50 101/198/50 102/199/50 104/200/50
f 101/201/51 97/202/51 98/203/51 102/204/51
f 100/205/52 99/206/52 103/207/52 104/208/52
f 99/209/53 97/210/53 101/211/53 103/212/53
f 102/213/54 98/214/54 100/215/54 104/216/54
f 106/217/55 105/218/55 107/219/55 108/220/55
f 111/221/56 109/222/56 110/223/56 112/224/56
f 109/225/57 105/226/57 106/227/57 110/228/57
f 108/229/58 107/230/58 111/231/58 112/232/58
f 107/233/59 105/234/59 109/235/59 111/236/59
f 110/237/60 106/238/60 108/239/60 112/240/60
g spindles
v 0.5 0.18749999999990624 0.1250001874999999
v 0.625 0.18749999999990624 0.12500018749999992
v 0.625 0.249999999999875 0.1250002499999999
v 0.5 0.249999999999875 0.12500024999999987
v 0.4999999999999999 0.18749931249990653 0.8125001874996562
v 0.6249999999999999 0.18749931249990653 0.8125001874996562
v 0.6249999999999999 0.24999931249987528 0.8125002499996562
v 0.4999999999999999 0.24999931249987528 0.8125002499996562
v 0.5 -0.3749999999998125 0.12499962500000014
v 0.625 -0.3749999999998125 0.12499962500000016
v 0.625 -0.31249999999984374 0.12499968750000012
v 0.5 -0.31249999999984374 0.12499968750000011
v 0.4999999999999999 -0.3750006874998122 0.8124996249996564
v 0.6249999999999999 -0.3750006874998122 0.8124996249996564
v 0.6249999999999999 -0.31250068749984344 0.8124996874996564
v 0.4999999999999999 -0.31250068749984344 0.8124996874996564
v 0.5 -0.31249999999984374 0.12499968750000011
v 0.625 -0.31249999999984374 0.12499968750000012
v 0.625 0.18749999999990624 0.12500018749999992
v 0.5 0.18749999999990624 0.1250001874999999
v 0.5 -0.3125001249998437 0.24999968749993762
v 0.625 -0.3125001249998437 0.24999968749993762
v 0.625 0.1874998749999063 0.2500001874999374
v 0.5 0.1874998749999063 0.25000018749993735
v 0.49999999999999994 -0.3125005624998435 0.6874996874997188
v 0.625 -0.3125005624998435 0.6874996874997188
v 0.625 0.18749943749990647 0.6875001874997186
v 0.49999999999999994 0.18749943749990647 0.6875001874997186
v 0.4999999999999999 -0.31250068749984344 0.8124996874996564
v 0.6249999999999999 -0.31250068749984344 0.8124996874996564
v 0.6249999999999999 0.18749931249990653 0.8125001874996562
v 0.4999999999999999 0.18749931249990653 0.8125001874996562
v 0.5 -0.31250018749984365 0.3124996874999063
v 0.625 -0.31250018749984365 0.31249968749990636
v 0.625 0.18749981249990633 0.31250018749990616
v 0.5 0.18749981249990633 0.31250018749990616
v 0.5 -0.3125003124998436 0.43749968749984386
v 0.625 -0.3125003124998436 0.43749968749984386
v 0.625 0.18749968749990636 0.43750018749984365
v 0.5 0.18749968749990636 0.43750018749984365
v 0.49999999999999994 -0.31250037499984357 0.4999996874998126
v 0.625 -0.31250037499984357 0.4999996874998126
v 0.625 0.1874996249999064 0.5000001874998123
v 0.49999999999999994 0.1874996249999064 0.5000001874998123
v 0.49999999999999994 -0.31250049999984353 0.6249996874997501
v 0.625 -0.31250049999984353 0.6249996874997501
v 0.625 0.18749949999990645 0.62500018749975
v 0.49999999999999994 0.18749949999990645 0.62500018749975
v 0.625 0.18749981249990633 0.31250018749990616
v 0.5 0.18749981249990633 0.31250018749990616
v 0.625 0.1874998749999063 0.2500001874999374
v 0.5 0.1874998749999063 0.25000018749993735
v 0.625 0.1874996249999064 0.5000001874998123
v 0.49999999999999994 0.1874996249999064 0.5000001874998123
v 0.625 0.18749968749990636 0.43750018749984365
v 0.5 0.18749968749990636 0.43750018749984365
v 0.625 0.18749943749990647 0.6875001874997186
v 0.49999999999999994 0.18749943749990647 0.6875001874997186
v 0.625 0.18749949999990645 0.62500018749975
v 0.49999999999999994 0.18749949999990645 0.62500018749975
v 0.625 -0.3125001249998437 0.24999968749993762
v 0.5 -0.3125001249998437 0.24999968749993762
v 0.625 -0.31250018749984365 0.31249968749990636
v 0.5 -0.31250018749984365 0.3124996874999063
v 0.625 -0.3125003124998436 0.43749968749984386
v 0.5 -0.3125003124998436 0.43749968749984386
v 0.625 -0.31250037499984357 0.4999996874998126
v 0.49999999999999994 -0.31250037499984357 0.4999996874998126
v 0.625 -0.31250049999984353 0.6249996874997501
v 0.49999999999999994 -0.31250049999984353 0.6249996874997501
v 0.625 -0.3125005624998435 0.6874996874997188
v 0.49999999999999994 -0.3125005624998435 0.6874996874997188
v -0.5 0.18749930068968187 0.8125001907206141
v -0.625 0.18749930068968187 0.8125001907206141
v -0.625 0.24999930068964954 0.8125002542942705
v -0.5 0.24999930068964954 0.8125002542942705
v -0.5 0.18749999999990305 0.1250001907209694
v -0.625 0.18749999999990305 0.1250001907209694
v -0.625 0.2499999999998707 0.1250002542946259
v -0.5 0.2499999999998707 0.12500025429462588
v -0.5 -0.3750006993100272 0.8124996185577058
v -0.625 -0.3750006993100272 0.812499618557706
v -0.625 -0.3125006993100595 0.8124996821313623
v -0.5 -0.3125006993100595 0.8124996821313623
v -0.5 -0.3749999999998061 0.1249996185580612
v -0.625 -0.3749999999998061 0.1249996185580612
v -0.625 -0.31249999999983835 0.12499968213171765
v -0.5 -0.31249999999983835 0.12499968213171765
v -0.5 -0.3125006993100595 0.8124996821313623
v -0.625 -0.3125006993100595 0.8124996821313623
v -0.625 0.18749930068968187 0.8125001907206141
v -0.5 0.18749930068968187 0.8125001907206141
v -0.5 -0.3125005721627466 0.6874996821314269
v -0.625 -0.3125005721627466 0.6874996821314269
v -0.625 0.18749942783699483 0.6875001907206788
v -0.5 0.18749942783699483 0.6875001907206788
v -0.5 -0.31250012714715136 0.24999968213165305
v -0.625 -0.31250012714715136 0.24999968213165305
v -0.625 0.1874998728525901 0.2500001907209048
v -0.5 0.1874998728525901 0.25000019072090474
v -0.5 -0.31249999999983835 0.12499968213171765
v -0.625 -0.31249999999983835 0.12499968213171765
v -0.625 0.18749999999990305 0.1250001907209694
v -0.5 0.18749999999990305 0.1250001907209694
v -0.5 -0.3125005085890902 0.6249996821314591
v -0.625 -0.3125005085890902 0.6249996821314592
v -0.625 0.18749949141065128 0.6250001907207109
v -0.5 0.18749949141065128 0.6250001907207109
v -0.5 -0.3125003814417772 0.49999968213152374
v -0.625 -0.3125003814417772 0.49999968213152374
v -0.625 0.18749961855796424 0.5000001907207754
v -0.5 0.18749961855796424 0.5000001907207755
v -0.5 -0.31250031786812077 0.4374996821315561
v -0.625 -0.31250031786812077 0.43749968213155604
v -0.625 0.1874996821316207 0.4375001907208078
v -0.5 0.1874996821316207 0.43750019072080787
v -0.5 -0.31250019072080776 0.3124996821316207
v -0.625 -0.31250019072080776 0.3124996821316207
v -0.625 0.18749980927893364 0.31250019072087243
v -0.5 0.18749980927893364 0.31250019072087243
v -0.625 0.18749949141065128 0.6250001907207109
v -0.5 0.18749949141065128 0.6250001907207109
v -0.625 0.18749942783699483 0.6875001907206788
v -0.5 0.18749942783699483 0.6875001907206788
v -0.625 0.1874996821316207 0.4375001907208078
v -0.5 0.1874996821316207 0.43750019072080787
v -0.625 0.18749961855796424 0.5000001907207754
v -0.5 0.18749961855796424 0.5000001907207755
v -0.625 0.1874998728525901 0.2500001907209048
v -0.5 0.1874998728525901 0.25000019072090474
v -0.625 0.18749980927893364 0.31250019072087243
v -0.5 0.18749980927893364 0.31250019072087243
v -0.625 -0.3125005721627466 0.6874996821314269
v -0.5 -0.3125005721627466 0.6874996821314269
v -0.625 -0.3125005085890902 0.6249996821314592
v -0.5 -0.3125005085890902 0.6249996821314591
v -0.625 -0.3125003814417772 0.49999968213152374
v -0.5 -0.3125003814417772 0.49999968213152374
v -0.625 -0.31250031786812077 0.43749968213155604
v -0.5 -0.31250031786812077 0.4374996821315561
v -0.625 -0.31250019072080776 0.3124996821316207
v -0.5 -0.31250019072080776 0.3124996821316207
v -0.625 -0.31250012714715136 0.24999968213165305
v -0.5 -0.31250012714715136 0.24999968213165305
vt 0.125 0.625
vt 0 0.625
vt 0 0.6875
vt 0.125 0.6875
vt 0 0.625
vt 0.125 0.625
vt 0.125 0.6875
vt 0 0.6875
vt 0.125 0.9375
vt 0.125 1
vt 0.8125 1
vt 0.8125 0.9375
vt 0.875 0.6875
vt 0.875 0.75
vt 0.1875 0.75
vt 0.1875 0.6875
vt 0.125 0.0625
vt 0 0.0625
vt 0 0.125
vt 0.125 0.125
vt 0 0.0625
vt 0.125 0.0625
vt 0.125 0.125
vt 0 0.125
vt 0.1875 0
vt 0.1875 0.0625
vt 0.875 0.0625
vt 0.875 0
vt 0.875 0
vt 0.875 0.0625
vt 0.1875 0.0625
vt 0.1875 0
vt 0.375 0.125
vt 0.25 0.125
vt 0.25 0.625
vt 0.375 0.625
vt 0.75 0.125
vt 0.875 0.125
vt 0.875 0.625
vt 0.75 0.625
vt 0 0.125
vt 0 0.625
vt 0.125 0.625
vt 0.125 0.125
vt 1 0.125
vt 1 0.625
vt 0.875 0.625
vt 0.875 0.125
vt 0.875 0.1875
vt 0.75 0.1875
vt 0.75 0.6875
vt 0.875 0.6875
vt 0 0.125
vt 0.125 0.125
vt 0.125 0.625
vt 0 0.625
vt 0.875 0.125
vt 0.875 0.625
vt 1 0.625
vt 1 0.125
vt 0.125 0.125
vt 0.125 0.625
vt 0 0.625
vt 0 0.125
vt 0.5 0.125
vt 0.375 0.125
vt 0.375 0.625
vt 0.5 0.625
vt 0.5 0.125
vt 0.625 0.125
vt 0.625 0.625
vt 0.5 0.625
vt 0.25 0.125
vt 0.25 0.625
vt 0.375 0.625
vt 0.375 0.125
vt 0.625 0.125
vt 0.625 0.625
vt 0.5 0.625
vt 0.5 0.125
vt 0.625 0.125
vt 0.5 0.125
vt 0.5 0.625
vt 0.625 0.625
vt 0.25 0.125
vt 0.375 0.125
vt 0.375 0.625
vt 0.25 0.625
vt 0.625 0.125
vt 0.625 0.625
vt 0.75 0.625
vt 0.75 0.125
vt 0.375 0.125
vt 0.375 0.625
vt 0.25 0.625
vt 0.25 0.125
vt 0.25 0.5625
vt 0.25 0.4375
vt 0.3125 0.4375
vt 0.3125 0.5625
vt 0.5 0.5625
vt 0.5 0.4375
vt 0.5625 0.4375
vt 0.5625 0.5625
vt 0.8125 0.5625
vt 0.8125 0.4375
vt 0.875 0.4375
vt 0.875 0.5625
vt 0.1875 0.4375
vt 0.1875 0.5625
vt 0.125 0.5625
vt 0.125 0.4375
vt 0.5625 0.4375
vt 0.5625 0.5625
vt 0.5 0.5625
vt 0.5 0.4375
vt 0.8125 0.4375
vt 0.8125 0.5625
vt 0.75 0.5625
vt 0.75 0.4375
vt 0.125 0.625
vt 0 0.625
vt 0 0.6875
vt 0.125 0.6875
vt 0 0.625
vt 0.125 0.625
vt 0.125 0.6875
vt 0 0.6875
vt 0.125 0.9375
vt 0.125 1
vt 0.8125 1
vt 0.8125 0.9375
vt 0.875 0.6875
vt 0.875 0.75
vt 0.1875 0.75
vt 0.1875 0.6875
vt 0.125 0.0625
vt 0 0.0625
vt 0 0.125
vt 0.125 0.125
vt 0 0.0625
vt 0.125 0.0625
vt 0.125 0.125
vt 0 0.125
vt 0.1875 0
vt 0.1875 0.0625
vt 0.875 0.0625
vt 0.875 0
vt 0.875 0
vt 0.875 0.0625
vt 0.1875 0.0625
vt 0.1875 0
vt 0.375 0.125
vt 0.25 0.125
vt 0.25 0.625
vt 0.375 0.625
vt 0.75 0.125
vt 0.875 0.125
vt 0.875 0.625
vt 0.75 0.625
vt 0 0.125
vt 0 0.625
vt 0.125 0.625
vt 0.125 0.125
vt 1 0.125
vt 1 0.625
vt 0.875 0.625
vt 0.875 0.125
vt 0.875 0.1875
vt 0.75 0.1875
vt 0.75 0.6875
vt 0.875 0.6875
vt 0 0.125
vt 0.125 0.125
vt 0.125 0.625
vt 0 0.625
vt 0.875 0.125
vt 0.875 0.625
vt 1 0.625
vt 1 0.125
vt 0.125 0.125
vt 0.125 0.625
vt 0 0.625
vt 0 0.125
vt 0.5 0.125
vt 0.375 0.125
vt 0.375 0.625
vt 0.5 0.625
vt 0.5 0.125
vt 0.625 0.125
vt 0.625 0.625
vt 0.5 0.625
vt 0.25 0.125
vt 0.25 0.625
vt 0.375 0.625
vt 0.375 0.125
vt 0.625 0.125
vt 0.625 0.625
vt 0.5 0.625
vt 0.5 0.125
vt 0.625 0.125
vt 0.5 0.125
vt 0.5 0.625
vt 0.625 0.625
vt 0.25 0.125
vt 0.375 0.125
vt 0.375 0.625
vt 0.25 0.625
vt 0.625 0.125
vt 0.625 0.625
vt 0.75 0.625
vt 0.75 0.125
vt 0.375 0.125
vt 0.375 0.625
vt 0.25 0.625
vt 0.25 0.125
vt 0.25 0.5625
vt 0.25 0.4375
vt 0.3125 0.4375
vt 0.3125 0.5625
vt 0.5 0.5625
vt 0.5 0.4375
vt 0.5625 0.4375
vt 0.5625 0.5625
vt 0.8125 0.5625
vt 0.8125 0.4375
vt 0.875 0.4375
vt 0.875 0.5625
vt 0.1875 0.4375
vt 0.1875 0.5625
vt 0.125 0.5625
vt 0.125 0.4375
vt 0.5625 0.4375
vt 0.5625 0.5625
vt 0.5 0.5625
vt 0.5 0.4375
vt 0.8125 0.4375
vt 0.8125 0.5625
vt 0.75 0.5625
vt 0.75 0.4375
vn -1.110223024626719e-16 -9.99999999578477e-7 0.9999999999995
vn -1.110223024626719e-16 -9.99999999578477e-7 0.9999999999995
vn 1 -1.1102230241571722e-22 1.1102230246246016e-16
vn 1 -1.1102230241571722e-22 1.1102230246246016e-16
vn -1.110223024626719e-16 -9.99999999578477e-7 0.9999999999995
vn -1.110223024626719e-16 -9.99999999578477e-7 0.9999999999995
vn 1 -1.1102230241571722e-22 1.1102230246246016e-16
vn 1 -1.1102230241571722e-22 1.1102230246246016e-16
vn -1.110223024626719e-16 -9.99999999578477e-7 0.9999999999995
vn -1.110223024626719e-16 -9.99999999578477e-7 0.9999999999995
vn 1 -1.1102230241571722e-22 1.1102230246246016e-16
vn 1 -1.1102230241571722e-22 1.1102230246246016e-16
vn -1.110223024626719e-16 -9.99999999578477e-7 0.9999999999995
vn -1.110223024626719e-16 -9.99999999578477e-7 0.9999999999995
vn 1 -1.1102230241571722e-22 1.1102230246246016e-16
vn 1 -1.1102230241571722e-22 1.1102230246246016e-16
vn -1.110223024626719e-16 -9.99999999578477e-7 0.9999999999995
vn -1.110223024626719e-16 -9.99999999578477e-7 0.9999999999995
vn 1 -1.1102230241571722e-22 1.1102230246246016e-16
vn 1 -1.1102230241571722e-22 1.1102230246246016e-16
vn -1.110223024626719e-16 -9.99999999578477e-7 0.9999999999995
vn -1.110223024626719e-16 -9.99999999578477e-7 0.9999999999995
vn 1 -1.1102230241571722e-22 1.1102230246246016e-16
vn 1 -1.1102230241571722e-22 1.1102230246246016e-16
vn -1.00735934397752e-22 -0.9999999999995 -9.99999999578477e-7
vn -1.00735934397752e-22 -0.9999999999995 -9.99999999578477e-7
vn -1.00735934397752e-22 -0.9999999999995 -9.99999999578477e-7
vn 1.00735934397752e-22 0.9999999999995 9.99999999578477e-7
vn 1.00735934397752e-22 0.9999999999995 9.99999999578477e-7
vn 1.00735934397752e-22 0.9999999999995 9.99999999578477e-7
vn 1.1102230246267362e-16 0.0000010171785035311323 -0.9999999999994827
vn 1.110223024626736e-16 0.0000010171785039752212 -0.9999999999994826
vn -1 1.1102230241571722e-22 -1.1102230246246016e-16
vn -1 1.1102230241571722e-22 -1.1102230246246016e-16
vn -1.6653345369375764e-15 0.0000010171784999784186 -0.9999999999994827
vn 1.5799404817379573e-28 0.0000010171785033090876 -0.9999999999994827
vn -1 1.1102230241571722e-22 -1.1102230246246016e-16
vn -1 1.1102230241571722e-22 -1.1102230246246016e-16
vn 1.1102230246267362e-16 0.0000010171785039752215 -0.9999999999994827
vn 1.1102230246267362e-16 0.0000010171785039752215 -0.9999999999994827
vn -1 1.1102230241571722e-22 -1.1102230246246016e-16
vn -1 1.1102230241571722e-22 -1.1102230246246016e-16
vn 1.1102230246267362e-16 0.000001017178503475621 -0.9999999999994827
vn 1.5799404817379573e-28 0.0000010171785035033767 -0.9999999999994827
vn -1 1.1102230241571722e-22 -1.1102230246246016e-16
vn -1 1.1102230241571722e-22 -1.1102230246246016e-16
vn -7.771561172374514e-16 0.00000101717850342011 -0.9999999999994827
vn -3.3306690738738894e-16 0.00000101717850342011 -0.9999999999994827
vn -1 1.1102230241571722e-22 -1.1102230246246016e-16
vn -1 1.1102230241571722e-22 -1.1102230246246016e-16
vn 1.1102230246267362e-16 0.0000010171785035311323 -0.9999999999994827
vn 1.1102230246267362e-16 0.0000010171785035311323 -0.9999999999994827
vn -1 1.1102230241571722e-22 -1.1102230246246016e-16
vn -1 1.1102230241571722e-22 -1.1102230246246016e-16
vn -9.882873738536695e-23 -0.9999999999994827 -0.000001017178503087043
vn -9.882873733606312e-23 -0.9999999999994826 -0.0000010171785035311323
vn -1.0645752558280786e-22 -0.9999999999994827 -0.0000010171785035311323
vn 9.882873743467075e-23 0.9999999999994827 0.0000010171785026429538
vn 1.06457525286985e-22 0.9999999999994826 0.0000010171785026429538
vn 9.882873743467074e-23 0.9999999999994826 0.0000010171785026429536
usemtl m_f5306224-599a-91bc-b705-12fb00cc7a52
f 113/241/61 114/242/61 115/243/61 116/244/61
f 117/245/62 118/246/62 119/247/62 120/248/62
f 113/249/63 116/250/63 120/251/63 117/252/63
f 114/253/64 115/254/64 119/255/64 118/256/64
f 121/257/65 122/258/65 123/259/65 124/260/65
f 125/261/66 126/262/66 127/263/66 128/264/66
f 121/265/67 124/266/67 128/267/67 125/268/67
f 122/269/68 123/270/68 127/271/68 126/272/68
f 129/273/69 130/274/69 131/275/69 132/276/69
f 133/277/70 134/278/70 135/279/70 136/280/70
f 129/281/71 132/282/71 136/283/71 133/284/71
f 130/285/72 131/286/72 135/287/72 134/288/72
f 137/289/73 138/290/73 139/291/73 140/292/73
f 141/293/74 142/294/74 143/295/74 144/296/74
f 137/297/75 140/298/75 144/299/75 141/300/75
f 138/301/76 139/302/76 143/303/76 142/304/76
f 145/305/77 146/306/77 147/307/77 148/308/77
f 149/309/78 150/310/78 151/311/78 152/312/78
f 145/313/79 148/314/79 152/315/79 149/316/79
f 146/317/80 147/318/80 151/319/80 150/320/80
f 153/321/81 154/322/81 155/323/81 156/324/81
f 157/325/82 158/326/82 159/327/82 160/328/82
f 153/329/83 156/330/83 160/331/83 157/332/83
f 154/333/84 155/334/84 159/335/84 158/336/84
f 161/337/85 162/338/85 164/339/85 163/340/85
f 165/341/86 166/342/86 168/343/86 167/344/86
f 169/345/87 170/346/87 172/347/87 171/348/87
f 173/349/88 174/350/88 176/351/88 175/352/88
f 177/353/89 178/354/89 180/355/89 179/356/89
f 181/357/90 182/358/90 184/359/90 183/360/90
f 185/361/91 186/362/91 187/363/91 188/364/91
f 189/365/92 190/366/92 191/367/92 192/368/92
f 185/369/93 188/370/93 192/371/93 189/372/93
f 186/373/94 187/374/94 191/375/94 190/376/94
f 193/377/95 194/378/95 195/379/95 196/380/95
f 197/381/96 198/382/96 199/383/96 200/384/96
f 193/385/97 196/386/97 200/387/97 197/388/97
f 194/389/98 195/390/98 199/391/98 198/392/98
f 201/393/99 202/394/99 203/395/99 204/396/99
f 205/397/100 206/398/100 207/399/100 208/400/100
f 201/401/101 204/402/101 208/403/101 205/404/101
f 202/405/102 203/406/102 207/407/102 206/408/102
f 209/409/103 210/410/103 211/411/103 212/412/103
f 213/413/104 214/414/104 215/415/104 216/416/104
f 209/417/105 212/418/105 216/419/105 213/420/105
f 210/421/106 211/422/106 215/423/106 214/424/106
f 217/425/107 218/426/107 219/427/107 220/428/107
f 221/429/108 222/430/108 223/431/108 224/432/108
f 217/433/109 220/434/109 224/435/109 221/436/109
f 218/437/110 219/438/110 223/439/110 222/440/110
f 225/441/111 226/442/111 227/443/111 228/444/111
f 229/445/112 230/446/112 231/447/112 232/448/112
f 225/449/113 228/450/113 232/451/113 229/452/113
f 226/453/114 227/454/114 231/455/114 230/456/114
f 233/457/115 234/458/115 236/459/115 235/460/115
f 237/461/116 238/462/116 240/463/116 239/464/116
f 241/465/117 242/466/117 244/467/117 243/468/117
f 245/469/118 246/470/118 248/471/118 247/472/118
f 249/473/119 250/474/119 252/475/119 251/476/119
f 253/477/120 254/478/120 256/479/120 255/480/120
