# Made in Blockbench 5.1.6
mtllib baluster.mtl

o mat a
v 0.5 0.25 -0.125
v 0.5 0.25 0.125
v 0.5 0.3125 0.125
v 0.5 0.3125 -0.125
v -0.5 0.25 -0.125
v -0.5 0.25 0.125
v -0.5 0.3125 0.125
v -0.5 0.3125 -0.125
v 0.5 -0.4375 -0.125
v 0.5 -0.4375 0.125
v 0.5 -0.375 0.125
v 0.5 -0.375 -0.125
v -0.5 -0.4375 -0.125
v -0.5 -0.4375 0.125
v -0.5 -0.375 0.125
v -0.5 -0.375 -0.125
v 0.1875 -0.3125 -0.0625
v 0.1875 -0.3125 0.0625
v 0.1875 0.1875 0.0625
v 0.1875 0.1875 -0.0625
v 0.0625 -0.3125 -0.0625
v 0.0625 -0.3125 0.0625
v 0.0625 0.1875 0.0625
v 0.0625 0.1875 -0.0625
v -0.3125 -0.3125 -0.0625
v -0.3125 -0.3125 0.0625
v -0.3125 0.1875 0.0625
v -0.3125 0.1875 -0.0625
v -0.4375 -0.3125 -0.0625
v -0.4375 -0.3125 0.0625
v -0.4375 0.1875 0.0625
v -0.4375 0.1875 -0.0625
v 0.4375 -0.3125 -0.0625
v 0.4375 -0.3125 0.0625
v 0.4375 0.1875 0.0625
v 0.4375 0.1875 -0.0625
v 0.3125 -0.3125 -0.0625
v 0.3125 -0.3125 0.0625
v 0.3125 0.1875 0.0625
v 0.3125 0.1875 -0.0625
v -0.0625 -0.3125 -0.0625
v -0.0625 -0.3125 0.0625
v -0.0625 0.1875 0.0625
v -0.0625 0.1875 -0.0625
v -0.1875 -0.3125 -0.0625
v -0.1875 -0.3125 0.0625
v -0.1875 0.1875 0.0625
v -0.1875 0.1875 -0.0625
v 0.5 0.1875 -0.0625
v 0.5 0.1875 0.0625
v 0.5 0.25 0.0625
v 0.5 0.25 -0.0625
v -0.5 0.1875 -0.0625
v -0.5 0.1875 0.0625
v -0.5 0.25 0.0625
v -0.5 0.25 -0.0625
v 0.5 -0.375 -0.0625
v 0.5 -0.375 0.0625
v 0.5 -0.3125 0.0625
v 0.5 -0.3125 -0.0625
v -0.5 -0.375 -0.0625
v -0.5 -0.375 0.0625
v -0.5 -0.3125 0.0625
v -0.5 -0.3125 -0.0625
v 0.0625 -0.5 -0.0625
v 0.0625 -0.5 0.0625
v 0.0625 -0.4375 0.0625
v 0.0625 -0.4375 -0.0625
v -0.0625 -0.5 -0.0625
v -0.0625 -0.5 0.0625
v -0.0625 -0.4375 0.0625
v -0.0625 -0.4375 -0.0625
v 0.5 -0.4375 0.125
v 0.5 -0.4375 -0.125
v -0.5 -0.4375 0.125
v -0.5 -0.4375 -0.125
v 0.5 -0.375 -0.0625
v 0.5 -0.375 -0.125
v -0.5 -0.375 -0.0625
v -0.5 -0.375 -0.125
v 0.5 -0.375 0.125
v 0.5 -0.375 0.0625
v -0.5 -0.375 0.125
v -0.5 -0.375 0.0625
v 0.5 0.25 0.125
v 0.5 0.25 0.0625
v -0.5 0.25 0.125
v -0.5 0.25 0.0625
v 0.5 0.25 -0.0625
v 0.5 0.25 -0.125
v -0.5 0.25 -0.0625
v -0.5 0.25 -0.125
v 0.3125 0.1875 0.0625
v 0.3125 0.1875 -0.0625
v 0.1875 0.1875 0.0625
v 0.1875 0.1875 -0.0625
v 0.0625 0.1875 0.0625
v 0.0625 0.1875 -0.0625
v -0.0625 0.1875 0.0625
v -0.0625 0.1875 -0.0625
v -0.1875 0.1875 0.0625
v -0.1875 0.1875 -0.0625
v -0.3125 0.1875 0.0625
v -0.3125 0.1875 -0.0625
v 0.0625 -0.3125 0.0625
v 0.0625 -0.3125 -0.0625
v -0.0625 -0.3125 0.0625
v -0.0625 -0.3125 -0.0625
v 0.3125 -0.3125 0.0625
v 0.3125 -0.3125 -0.0625
v 0.1875 -0.3125 0.0625
v 0.1875 -0.3125 -0.0625
v -0.1875 -0.3125 0.0625
v -0.1875 -0.3125 -0.0625
v -0.3125 -0.3125 0.0625
v -0.3125 -0.3125 -0.0625
v 0.5 0.1875 0.0625
v 0.5 0.1875 -0.0625
v 0.4375 0.1875 0.0625
v 0.4375 0.1875 -0.0625
v -0.4375 0.1875 0.0625
v -0.4375 0.1875 -0.0625
v -0.5 0.1875 0.0625
v -0.5 0.1875 -0.0625
v 0.5 -0.3125 0.0625
v 0.5 -0.3125 -0.0625
v 0.4375 -0.3125 0.0625
v 0.4375 -0.3125 -0.0625
v -0.4375 -0.3125 0.0625
v -0.4375 -0.3125 -0.0625
v -0.5 -0.3125 0.0625
v -0.5 -0.3125 -0.0625
vt 0 0.9375
vt 0.25 0.9375
vt 0.25 1
vt 0 1
vt 0 0.9375
vt 0.25 0.9375
vt 0.25 1
vt 0 1
vt 0 0.6875
vt 0 0.75
vt 1 0.75
vt 1 0.6875
vt 1 0.6875
vt 1 0.75
vt 0 0.75
vt 0 0.6875
vt 0.625 1
vt 0.625 0
vt 0.375 0
vt 0.375 1
vt 0 0.9375
vt 0.25 0.9375
vt 0.25 1
vt 0 1
vt 0 0.9375
vt 0.25 0.9375
vt 0.25 1
vt 0 1
vt 0 0.0625
vt 0 0.125
vt 1 0.125
vt 1 0.0625
vt 1 0.0625
vt 1 0.125
vt 0 0.125
vt 0 0.0625
vt 0 0.5
vt 0.125 0.5
vt 0.125 1
vt 0 1
vt 0.875 0.5
vt 1 0.5
vt 1 1
vt 0.875 1
vt 0.3125 0.25
vt 0.3125 0.75
vt 0.4375 0.75
vt 0.4375 0.25
vt 0.6875 0.25
vt 0.6875 0.75
vt 0.5625 0.75
vt 0.5625 0.25
vt 0 0.5
vt 0.125 0.5
vt 0.125 1
vt 0 1
vt 0.875 0.5
vt 1 0.5
vt 1 1
vt 0.875 1
vt 0.8125 0.25
vt 0.8125 0.75
vt 0.9375 0.75
vt 0.9375 0.25
vt 0.1875 0.25
vt 0.1875 0.75
vt 0.0625 0.75
vt 0.0625 0.25
vt 0 0.5
vt 0.125 0.5
vt 0.125 1
vt 0 1
vt 0.875 0.5
vt 1 0.5
vt 1 1
vt 0.875 1
vt 0.0625 0.25
vt 0.0625 0.75
vt 0.1875 0.75
vt 0.1875 0.25
vt 0.9375 0.25
vt 0.9375 0.75
vt 0.8125 0.75
vt 0.8125 0.25
vt 0 0.5
vt 0.125 0.5
vt 0.125 1
vt 0 1
vt 0.875 0.5
vt 1 0.5
vt 1 1
vt 0.875 1
vt 0.5625 0.25
vt 0.5625 0.75
vt 0.6875 0.75
vt 0.6875 0.25
vt 0.4375 0.25
vt 0.4375 0.75
vt 0.3125 0.75
vt 0.3125 0.25
vt 0 0.9375
vt 0.125 0.9375
vt 0.125 1
vt 0 1
vt 0 0.9375
vt 0.125 0.9375
vt 0.125 1
vt 0 1
vt 0 0.625
vt 0 0.6875
vt 1 0.6875
vt 1 0.625
vt 1 0.625
vt 1 0.6875
vt 0 0.6875
vt 0 0.625
vt 0 0.9375
vt 0.125 0.9375
vt 0.125 1
vt 0 1
vt 0 0.9375
vt 0.125 0.9375
vt 0.125 1
vt 0 1
vt 0 0.125
vt 0 0.1875
vt 1 0.1875
vt 1 0.125
vt 1 0.125
vt 1 0.1875
vt 0 0.1875
vt 0 0.125
vt 0 0.9375
vt 0.125 0.9375
vt 0.125 1
vt 0 1
vt 0 0.9375
vt 0.125 0.9375
vt 0.125 1
vt 0 1
vt 0.125 0.9375
vt 0.125 1
vt 0 1
vt 0 0.9375
vt 0.125 0.9375
vt 0.125 1
vt 0 1
vt 0 0.9375
vt 0.125 0.875
vt 0.125 1
vt 0 1
vt 0 0.875
vt 0.375 0
vt 0.625 0
vt 0.625 1
vt 0.375 1
vt 0.375 1
vt 0.4375 1
vt 0.4375 0
vt 0.375 0
vt 0.5625 1
vt 0.625 1
vt 0.625 0
vt 0.5625 0
vt 0.625 1
vt 0.625 0
vt 0.5625 0
vt 0.5625 1
vt 0.4375 1
vt 0.4375 0
vt 0.375 0
vt 0.375 1
vt 0.4375 0.5625
vt 0.5625 0.5625
vt 0.5625 0.4375
vt 0.4375 0.4375
vt 0.4375 0.5625
vt 0.5625 0.5625
vt 0.5625 0.4375
vt 0.4375 0.4375
vt 0.4375 0.5625
vt 0.5625 0.5625
vt 0.5625 0.4375
vt 0.4375 0.4375
vt 0.4375 0.4375
vt 0.4375 0.5625
vt 0.5625 0.5625
vt 0.5625 0.4375
vt 0.4375 0.4375
vt 0.4375 0.5625
vt 0.5625 0.5625
vt 0.5625 0.4375
vt 0.4375 0.1875
vt 0.4375 0.3125
vt 0.5625 0.3125
vt 0.5625 0.1875
vt 0.5 0.5625
vt 0.5625 0.5625
vt 0.5625 0.4375
vt 0.5 0.4375
vt 0.4375 1
vt 0.4375 0.9375
vt 0.5625 0.9375
vt 0.5625 1
vt 0.5625 0.4375
vt 0.5625 0.5625
vt 0.5 0.5625
vt 0.5 0.4375
vt 0.5625 0.0625
vt 0.4375 0.0625
vt 0.4375 0
vt 0.5625 0
vn -1 0 0
vn -1 0 0
vn 0 0 1
vn 0 0 1
vn 0 1 0
vn -1 0 0
vn -1 0 0
vn 0 0 1
vn 0 0 1
vn -1 0 0
vn -1 0 0
vn 0 0 1
vn 0 0 1
vn -1 0 0
vn -1 0 0
vn 0 0 1
vn 0 0 1
vn -1 0 0
vn -1 0 0
vn 0 0 1
vn 0 0 1
vn -1 0 0
vn -1 0 0
vn 0 0 1
vn 0 0 1
vn -1 0 0
vn -1 0 0
vn 0 0 1
vn 0 0 1
vn -1 0 0
vn -1 0 0
vn 0 0 1
vn 0 0 1
vn -1 0 0
vn -1 0 0
vn 0 0 1
vn 0 0 1
vn 0 -1 0
vn 0 1 0
vn 0 1 0
vn 0 1 0
vn 0 -1 0
vn 0 -1 0
vn 0 -1 0
vn 0 -1 0
vn 0 -1 0
vn 0 1 0
vn 0 1 0
vn 0 1 0
vn 0 -1 0
vn 0 -1 0
vn 0 1 0
vn 0 1 0
usemtl m_4008d4be-6c1b-3bc6-f9b9-8159ac4fecb0
f 1/1/1 2/2/1 3/3/1 4/4/1
f 5/5/2 6/6/2 7/7/2 8/8/2
f 1/9/3 4/10/3 8/11/3 5/12/3
f 2/13/4 3/14/4 7/15/4 6/16/4
f 7/17/5 3/18/5 4/19/5 8/20/5
f 9/21/6 10/22/6 11/23/6 12/24/6
f 13/25/7 14/26/7 15/27/7 16/28/7
f 9/29/8 12/30/8 16/31/8 13/32/8
f 10/33/9 11/34/9 15/35/9 14/36/9
f 17/37/10 18/38/10 19/39/10 20/40/10
f 21/41/11 22/42/11 23/43/11 24/44/11
f 17/45/12 20/46/12 24/47/12 21/48/12
f 18/49/13 19/50/13 23/51/13 22/52/13
f 25/53/14 26/54/14 27/55/14 28/56/14
f 29/57/15 30/58/15 31/59/15 32/60/15
f 25/61/16 28/62/16 32/63/16 29/64/16
f 26/65/17 27/66/17 31/67/17 30/68/17
f 33/69/18 34/70/18 35/71/18 36/72/18
f 37/73/19 38/74/19 39/75/19 40/76/19
f 33/77/20 36/78/20 40/79/20 37/80/20
f 34/81/21 35/82/21 39/83/21 38/84/21
f 41/85/22 42/86/22 43/87/22 44/88/22
f 45/89/23 46/90/23 47/91/23 48/92/23
f 41/93/24 44/94/24 48/95/24 45/96/24
f 42/97/25 43/98/25 47/99/25 46/100/25
f 49/101/26 50/102/26 51/103/26 52/104/26
f 53/105/27 54/106/27 55/107/27 56/108/27
f 49/109/28 52/110/28 56/111/28 53/112/28
f 50/113/29 51/114/29 55/115/29 54/116/29
f 57/117/30 58/118/30 59/119/30 60/120/30
f 61/121/31 62/122/31 63/123/31 64/124/31
f 57/125/32 60/126/32 64/127/32 61/128/32
f 58/129/33 59/130/33 63/131/33 62/132/33
f 65/133/34 66/134/34 67/135/34 68/136/34
f 69/137/35 70/138/35 71/139/35 72/140/35
f 65/141/36 68/142/36 72/143/36 69/144/36
f 66/145/37 67/146/37 71/147/37 70/148/37
f 65/149/38 66/150/38 70/151/38 69/152/38
f 73/153/39 74/154/39 76/155/39 75/156/39
f 77/157/40 78/158/40 80/159/40 79/160/40
f 81/161/41 82/162/41 84/163/41 83/164/41
f 88/165/42 86/166/42 85/167/42 87/168/42
f 92/169/43 90/170/43 89/171/43 91/172/43
f 96/173/44 94/174/44 93/175/44 95/176/44
f 100/177/45 98/178/45 97/179/45 99/180/45
f 104/181/46 102/182/46 101/183/46 103/184/46
f 105/185/47 106/186/47 108/187/47 107/188/47
f 109/189/48 110/190/48 112/191/48 111/192/48
f 113/193/49 114/194/49 116/195/49 115/196/49
f 120/197/50 118/198/50 117/199/50 119/200/50
f 124/201/51 122/202/51 121/203/51 123/204/51
f 125/205/52 126/206/52 128/207/52 127/208/52
f 129/209/53 130/210/53 132/211/53 131/212/53