# Made in Blockbench 5.1.6
mtllib stair_baluster_upper.mtl

o mat a
v 0.3125 -0.5 -0.0625
v 0.3125 -0.5 0.0625
v 0.1875 -0.5 -0.0625
v 0.1875 -0.5 0.0625
v 0.3125 -0.5 -0.0625
v 0.3125 -0.5 0.0625
v 0.3125 -0.4375 0.0625
v 0.3125 -0.4375 -0.0625
v 0.1875 -0.5 -0.0625
v 0.1875 -0.5 0.0625
v 0.1875 -0.4375 0.0625
v 0.1875 -0.4375 -0.0625
v 0.1875 -0.3125 -0.0625
v 0.1875 -0.3125 0.0625
v 0.1875 0.1875 0.0625
v 0.1875 0.1875 -0.0625
v 0.0625 -0.3125 -0.0625
v 0.0625 -0.3125 0.0625
v 0.0625 0.1875 0.0625
v 0.0625 0.1875 -0.0625
v 0.4375 -0.3125 -0.0625
v 0.4375 -0.3125 0.0625
v 0.4375 0.1875 0.0625
v 0.4375 0.1875 -0.0625
v 0.3125 -0.3125 -0.0625
v 0.3125 -0.3125 0.0625
v 0.3125 0.1875 0.0625
v 0.3125 0.1875 -0.0625
v 0.0625 0.1875 0.0625
v 0.0625 0.1875 -0.0625
v 0 0.1875 0.0625
v 0 0.1875 -0.0625
v 0.0625 -0.3125 0.0625
v 0.0625 -0.3125 -0.0625
v 0 -0.3125 0.0625
v 0 -0.3125 -0.0625
v 0.3125 0.1875 0.0625
v 0.3125 0.1875 -0.0625
v 0.1875 0.1875 0.0625
v 0.1875 0.1875 -0.0625
v 0.3125 -0.3125 0.0625
v 0.3125 -0.3125 -0.0625
v 0.1875 -0.3125 0.0625
v 0.1875 -0.3125 -0.0625
v 0.5 0.1875 0.0625
v 0.5 0.1875 -0.0625
v 0.4375 0.1875 0.0625
v 0.4375 0.1875 -0.0625
v 0.5 -0.3125 0.0625
v 0.5 -0.3125 -0.0625
v 0.4375 -0.3125 0.0625
v 0.4375 -0.3125 -0.0625
v 0.5 0.25 -0.125
v 0.5 0.25 0.125
v 0.5 0.3125 0.125
v 0.5 0.3125 -0.125
v 0 0.25 -0.125
v 0 0.25 0.125
v 0 0.3125 0.125
v 0 0.3125 -0.125
v 0.5 -0.4375 -0.125
v 0.5 -0.4375 0.125
v 0.5 -0.375 0.125
v 0.5 -0.375 -0.125
v 0 -0.4375 -0.125
v 0 -0.4375 0.125
v 0 -0.375 0.125
v 0 -0.375 -0.125
v 0.5 0.1875 -0.0625
v 0.5 0.1875 0.0625
v 0.5 0.25 0.0625
v 0.5 0.25 -0.0625
v 0 0.1875 -0.0625
v 0 0.1875 0.0625
v 0 0.25 0.0625
v 0 0.25 -0.0625
v 0.5 -0.375 -0.0625
v 0.5 -0.375 0.0625
v 0.5 -0.3125 0.0625
v 0.5 -0.3125 -0.0625
v 0 -0.375 -0.0625
v 0 -0.375 0.0625
v 0 -0.3125 0.0625
v 0 -0.3125 -0.0625
v 0.5 -0.4375 0.125
v 0.5 -0.4375 -0.125
v 0 -0.4375 0.125
v 0 -0.4375 -0.125
v 0.5 -0.375 -0.0625
v 0.5 -0.375 -0.125
v 0 -0.375 -0.0625
v 0 -0.375 -0.125
v 0.5 -0.375 0.125
v 0.5 -0.375 0.0625
v 0 -0.375 0.125
v 0 -0.375 0.0625
v 0.5 0.25 -0.0625
v 0.5 0.25 -0.125
v 0 0.25 -0.0625
v 0 0.25 -0.125
v 0.5 0.25 0.125
v 0.5 0.25 0.0625
v 0 0.25 0.125
v 0 0.25 0.0625
v 0 0.25 0.125
v 0 0.25 0.0625
v 0 0.25 0.125
v 0 0.25 0.0625
v 0 0.25 -0.0625
v 0 0.25 -0.125
v 0 0.25 -0.0625
v 0 0.25 -0.125
v -0.3125 -0.625 -0.0625
v -0.3125 -0.625 0.0625
v -0.3125 -0.125 0.0625
v -0.3125 -0.125 -0.0625
v -0.4375 -0.75 -0.0625
v -0.4375 -0.75 0.0625
v -0.4375 -0.25 0.0625
v -0.4375 -0.25 -0.0625
v -0.4375 -0.75 -0.0625
v -0.4375 -0.75 0.0625
v -0.4375 -0.25 0.0625
v -0.4375 -0.25 -0.0625
v -0.0625 -0.375 -0.0625
v -0.0625 -0.375 0.0625
v -0.0625 0.125 0.0625
v -0.0625 0.125 -0.0625
v -0.1875 -0.5 0.0625
v -0.1875 0 0.0625
v -0.1875 -0.5 -0.0625
v -0.1875 0 -0.0625
v -0.0625 -0.375 -0.0625
v -0.0625 -0.375 0.0625
v -0.0625 0.125 0.0625
v -0.0625 0.125 -0.0625
v 0 0.1875 -0.0625
v 0 0.1875 0.0625
v 0 0.25 0.0625
v 0 0.25 -0.0625
v 0 0.25 -0.125
v 0 0.25 0.125
v 0 0.3125 0.125
v 0 0.3125 -0.125
v 0 -0.3125 -0.0625
v 0 -0.3125 0.0625
v 0 -0.375 0.0625
v 0 -0.375 -0.0625
v 0 -0.375 -0.125
v 0 -0.375 0.125
v 0 -0.4375 0.125
v 0 -0.4375 -0.125
v -0.1875 -0.5 -0.0625
v -0.1875 -0.5 0.0625
v -0.1875 0 0.0625
v -0.1875 0 -0.0625
v -0.1875 -0.5 0.0625
v -0.1875 -0.5 -0.0625
v -0.3125 -0.625 0.0625
v -0.3125 -0.625 -0.0625
v 0 -0.3125 0.0625
v 0 -0.3125 -0.0625
v -0.0625 -0.375 0.0625
v -0.0625 -0.375 -0.0625
v -0.1875 0 0.0625
v -0.1875 0 -0.0625
v -0.3125 -0.125 0.0625
v -0.3125 -0.125 -0.0625
v 0 0.1875 0.0625
v 0 0.1875 -0.0625
v -0.0625 0.125 0.0625
v -0.0625 0.125 -0.0625
v 0 0.25 -0.125
v 0 0.25 0.125
v 0 0.3125 0.125
v 0 0.3125 -0.125
v 0 -0.4375 -0.125
v 0 -0.4375 0.125
v 0 -0.375 0.125
v 0 -0.375 -0.125
v 0 0.1875 -0.0625
v 0 0.1875 0.0625
v 0 0.25 0.0625
v 0 0.25 -0.0625
v 0 -0.375 -0.0625
v 0 -0.375 0.0625
v 0 -0.3125 0.0625
v 0 -0.3125 -0.0625
v -0.5 -0.3125 -0.0625
v -0.5 -0.3125 0.0625
v -0.5 -0.25 0.0625
v -0.5 -0.25 -0.0625
v -0.5 -0.25 -0.125
v -0.5 -0.25 0.125
v -0.5 -0.1875 0.125
v -0.5 -0.1875 -0.125
v -0.5 -0.8125 -0.0625
v -0.5 -0.8125 0.0625
v -0.5 -0.875 0.0625
v -0.5 -0.875 -0.0625
v -0.5 -0.875 -0.125
v -0.5 -0.875 0.125
v -0.5 -0.9375 0.125
v -0.5 -0.9375 -0.125
v -0.4375 -0.25 0.0625
v -0.4375 -0.25 -0.0625
v -0.5 -0.3125 0.0625
v -0.5 -0.3125 -0.0625
v -0.4375 -0.75 0.0625
v -0.4375 -0.75 -0.0625
v -0.5 -0.8125 0.0625
v -0.5 -0.8125 -0.0625
v 0 0.3125 0.125
v 0 0.3125 -0.125
v -0.5 -0.1875 0.125
v -0.5 -0.1875 -0.125
v 0 -0.4375 0.125
v 0 -0.4375 -0.125
v -0.5 -0.9375 0.125
v -0.5 -0.9375 -0.125
v 0 -0.375 -0.125
v 0 -0.4375 -0.125
v -0.5 -0.875 -0.125
v -0.5 -0.9375 -0.125
v 0 -0.375 0.125
v 0 -0.4375 0.125
v -0.5 -0.875 0.125
v -0.5 -0.9375 0.125
v 0 -0.375 -0.0625
v 0 -0.375 -0.125
v -0.5 -0.875 -0.0625
v -0.5 -0.875 -0.125
v 0 -0.375 0.125
v 0 -0.375 0.0625
v -0.5 -0.875 0.125
v -0.5 -0.875 0.0625
v 0 -0.3125 0.0625
v 0 -0.375 0.0625
v -0.5 -0.8125 0.0625
v -0.5 -0.875 0.0625
v 0 -0.3125 -0.0625
v 0 -0.375 -0.0625
v -0.5 -0.8125 -0.0625
v -0.5 -0.875 -0.0625
v -0.5 -0.25 0.125
v -0.5 -0.1875 0.125
v 0 0.25 0.125
v 0 0.3125 0.125
v -0.5 -0.25 0.125
v -0.5 -0.25 0.0625
v 0 0.25 0.125
v 0 0.25 0.0625
v -0.5 -0.3125 0.0625
v -0.5 -0.25 0.0625
v 0 0.1875 0.0625
v 0 0.25 0.0625
v -0.5 -0.3125 -0.0625
v -0.5 -0.25 -0.0625
v 0 0.1875 -0.0625
v 0 0.25 -0.0625
v -0.5 -0.25 -0.0625
v -0.5 -0.25 -0.125
v 0 0.25 -0.0625
v 0 0.25 -0.125
v -0.5 -0.25 -0.125
v -0.5 -0.1875 -0.125
v 0 0.25 -0.125
v 0 0.3125 -0.125
vt 0.375 0.4375
vt 0.375 0.5625
vt 0.5 0.5625
vt 0.5 0.4375
vt 0.4375 0
vt 0.5625 0
vt 0.5625 0.0625
vt 0.4375 0.0625
vt 0.375 0.9375
vt 0.5 0.9375
vt 0.5 1
vt 0.375 1
vt 0.375 0.9375
vt 0.375 1
vt 0.5 1
vt 0.5 0.9375
vt 0.5 0.9375
vt 0.5 1
vt 0.375 1
vt 0.375 0.9375
vt 0.5625 0.125
vt 0.4375 0.125
vt 0.4375 0.625
vt 0.5625 0.625
vt 0.4375 0.375
vt 0.5625 0.375
vt 0.5625 0.875
vt 0.4375 0.875
vt 0.3125 0.1875
vt 0.3125 0.6875
vt 0.4375 0.6875
vt 0.4375 0.1875
vt 0.75 0.1875
vt 0.75 0.6875
vt 0.625 0.6875
vt 0.625 0.1875
vt 0.5625 0.125
vt 0.4375 0.125
vt 0.4375 0.625
vt 0.5625 0.625
vt 0.4375 0.375
vt 0.5625 0.375
vt 0.5625 0.875
vt 0.4375 0.875
vt 0.1875 0.1875
vt 0.1875 0.6875
vt 0.0625 0.6875
vt 0.0625 0.1875
vt 1 0.1875
vt 1 0.6875
vt 0.875 0.6875
vt 0.875 0.1875
vt 0.4375 0.5625
vt 0.4375 0.5
vt 0.5625 0.5
vt 0.5625 0.5625
vt 0.5625 0.5625
vt 0.4375 0.5625
vt 0.4375 0.625
vt 0.5625 0.625
vt 0.4375 0.9375
vt 0.5625 0.9375
vt 0.5625 0.8125
vt 0.4375 0.8125
vt 0.5625 0.8125
vt 0.5625 0.6875
vt 0.4375 0.6875
vt 0.4375 0.8125
vt 0.5625 1
vt 0.5625 0.9375
vt 0.4375 0.9375
vt 0.4375 1
vt 0.5625 0.9375
vt 0.4375 0.9375
vt 0.4375 1
vt 0.5625 1
vt 0.625 0.6875
vt 0.375 0.6875
vt 0.375 0.75
vt 0.625 0.75
vt 0 0.9375
vt 0 1
vt 0.5 1
vt 0.5 0.9375
vt 1 0.9375
vt 1 1
vt 0.5 1
vt 0.5 0.9375
vt 0.625 0.5
vt 0.625 1
vt 0.375 1
vt 0.375 0.5
vt 0.375 0.0625
vt 0.375 0
vt 0.625 0
vt 0.625 0.0625
vt 0 0.0625
vt 0 0.125
vt 0.5 0.125
vt 0.5 0.0625
vt 1 0.0625
vt 1 0.125
vt 0.5 0.125
vt 0.5 0.0625
vt 0.5625 0.625
vt 0.4375 0.625
vt 0.4375 0.6875
vt 0.5625 0.6875
vt 0 0.875
vt 0 0.9375
vt 0.5 0.9375
vt 0.5 0.875
vt 1 0.875
vt 1 0.9375
vt 0.5 0.9375
vt 0.5 0.875
vt 0.5625 0.0625
vt 0.4375 0.0625
vt 0.4375 0.125
vt 0.5625 0.125
vt 0 0.125
vt 0 0.1875
vt 0.5 0.1875
vt 0.5 0.125
vt 1 0.125
vt 1 0.1875
vt 0.5 0.1875
vt 0.5 0.125
vt 0.625 0.25
vt 0.625 0.75
vt 0.375 0.75
vt 0.375 0.25
vt 0.5 0.1875
vt 0.5 0.25
vt 0 0.25
vt 0 0.1875
vt 1 0.4375
vt 1 0.5
vt 0.5 0.5
vt 0.5 0.4375
vt 0 0.25
vt 0.5 0.25
vt 0.5 0.1875
vt 0 0.1875
vt 0.5 0.5
vt 1 0.5
vt 1 0.4375
vt 0.5 0.4375
vt 1 0
vt 1 1
vt 0 1
vt 0 0
vt 1 0
vt 1 1
vt 0 1
vt 0 0
vt 0.5625 0
vt 0.4375 0
vt 0.4375 0.5
vt 0.5625 0.5
vt 0.8125 0.25
vt 0.8125 0.75
vt 0.9375 0.625
vt 0.9375 0.125
vt 0.1875 0.25
vt 0.1875 0.75
vt 0.0625 0.625
vt 0.0625 0.125
vt 0.4375 0.0625
vt 0.5625 0.0625
vt 0.5625 0.5625
vt 0.4375 0.5625
vt 0.5 0.1875
vt 0.5 0.6875
vt 0.375 0.5625
vt 0.375 0.0625
vt 0.375 0.375
vt 0.375 0.875
vt 0.5 0.75
vt 0.5 0.25
vt 0.5625 0.0625
vt 0.4375 0.0625
vt 0.4375 0.5625
vt 0.5625 0.5625
vt 0 1
vt 0 1
vt 0 1
vt 0 1
vt 0 1
vt 0 1
vt 0 1
vt 0 1
vt 0 1
vt 0 1
vt 0 1
vt 0 1
vt 0 1
vt 0 1
vt 0 1
vt 0 1
vt 0.4375 0
vt 0.5625 0
vt 0.5625 0.5
vt 0.4375 0.5
vt 0.5625 0.3125
vt 0.4375 0.3125
vt 0.4375 0.1875
vt 0.5625 0.1875
vt 0.5625 0.3125
vt 0.4375 0.3125
vt 0.4375 0.25
vt 0.5625 0.25
vt 0.5625 0.448225
vt 0.5625 0.625
vt 0.4375 0.625
vt 0.4375 0.448225
vt 0.4375 0.625
vt 0.4375 0.6875
vt 0.5625 0.6875
vt 0.5625 0.625
vt 0 1
vt 0 1
vt 0 1
vt 0 1
vt 0 1
vt 0 1
vt 0 1
vt 0 1
vt 0 1
vt 0 1
vt 0 1
vt 0 1
vt 0 1
vt 0 1
vt 0 1
vt 0 1
vt 0.4375 0
vt 0.5625 0
vt 0.5625 0.0625
vt 0.4375 0.0625
vt 0.375 0.0625
vt 0.625 0.0625
vt 0.625 0.125
vt 0.375 0.125
vt 0.4375 0.0625
vt 0.5625 0.0625
vt 0.5625 0
vt 0.4375 0
vt 0.375 0.0625
vt 0.625 0.0625
vt 0.625 0
vt 0.375 0
vt 0.4375 0.4375
vt 0.4375 0.5
vt 0.5625 0.5
vt 0.5625 0.4375
vt 0.5625 0.1875
vt 0.4375 0.1875
vt 0.4375 0.125
vt 0.5625 0.125
vt 0.625 0.70710625
vt 0.375 0.70710625
vt 0.375 0
vt 0.625 0
vt 0.625 0.16788749999999997
vt 0.625 0.875
vt 0.375 0.875
vt 0.375 0.16788749999999997
vt 0.5 0.5625
vt 0.5 0.5
vt 1 0
vt 1 0.0625
vt 0.5 0.5625
vt 0.5 0.5
vt 0 0
vt 0 0.0625
vt 0.9375 0.4375
vt 0.9375 0.5
vt 0.375 0.5
vt 0.375 0.4375
vt 0.6875 0.5
vt 0.6875 0.5625
vt 0 0.5625
vt 0 0.5
vt 0.5 0.625
vt 0.5 0.5625
vt 0 0.0625
vt 0 0.125
vt 0.5 0.625
vt 0.5 0.5625
vt 1 0.0625
vt 1 0.125
vt 0 0.4375
vt 0 0.5
vt 0.5 1
vt 0.5 0.9375
vt 0.1875 0.6875
vt 0.1875 0.625
vt 0.875 0.625
vt 0.875 0.6875
vt 0 0.375
vt 0 0.4375
vt 0.5 0.9375
vt 0.5 0.875
vt 1 0.375
vt 1 0.4375
vt 0.5 0.9375
vt 0.5 0.875
vt 0.9375 0.5
vt 0.9375 0.4375
vt 0.25 0.4375
vt 0.25 0.5
vt 1 0.4375
vt 1 0.5
vt 0.5 1
vt 0.5 0.9375
vn 0 -1 0
vn -1 0 0
vn -1 0 0
vn 0 0 1
vn 0 0 1
vn -1 0 0
vn -1 0 0
vn 0 0 1
vn 0 0 1
vn -1 0 0
vn -1 0 0
vn 0 0 1
vn 0 0 1
vn 0 -1 0
vn 0 1 0
vn 0 -1 0
vn 0 1 0
vn 0 -1 0
vn 0 1 0
vn -1 0 0
vn 0 0 1
vn 0 0 1
vn 0 1 0
vn 1 0 0
vn 0 0 1
vn 0 0 1
vn -1 0 0
vn 0 0 1
vn 0 0 1
vn -1 0 0
vn 0 0 1
vn 0 0 1
vn 0 -1 0
vn 0 1 0
vn 0 1 0
vn 0 -1 0
vn 0 -1 0
vn 0 0 0
vn 0 0 0
vn -1 0 0
vn 0 0 1
vn 0 0 1
vn -1 0 0
vn 0 0 1
vn 0 0 1
vn -1 0 0
vn -1 0 0
vn -1 0 0
vn -1 0 0
vn -1 0 0
vn -1 0 0
vn -0.7071067811865476 0.7071067811865476 0
vn -0.7071067811865476 0.7071067811865476 0
vn 0.7071067811865476 -0.7071067811865476 0
vn 0.7071067811865476 -0.7071067811865476 0
vn -1 0 0
vn -1 0 0
vn -1 0 0
vn -1 0 0
vn -1 0 0
vn -1 0 0
vn 1 0 0
vn 1 0 0
vn 0.7071067811865476 -0.7071067811865476 0
vn -0.7071067811865476 0.7071067811865476 0
vn -0.7071067811865476 0.7071067811865476 0
vn 0.7071067811865476 -0.7071067811865476 0
vn 0 0 -1
vn 0 0 -1
vn -0.7071067811865476 0.7071067811865476 0
vn -0.7071067811865476 0.7071067811865476 0
vn 0 0 -1
vn 0 0 -1
vn 0 0 -1
vn 0.7071067811865476 -0.7071067811865476 0
vn 0 0 -1
vn 0 0 -1
vn 0.7071067811865476 -0.7071067811865476 0
vn 0 0 -1
usemtl m_b5c5ab2c-6972-f6cb-7cb3-74f5ddb08072
f 1/1/1 2/2/1 4/3/1 3/4/1
f 5/5/2 6/6/2 7/7/2 8/8/2
f 9/9/3 10/10/3 11/11/3 12/12/3
f 5/13/4 8/14/4 12/15/4 9/16/4
f 6/17/5 7/18/5 11/19/5 10/20/5
f 13/21/6 14/22/6 15/23/6 16/24/6
f 17/25/7 18/26/7 19/27/7 20/28/7
f 13/29/8 16/30/8 20/31/8 17/32/8
f 14/33/9 15/34/9 19/35/9 18/36/9
f 21/37/10 22/38/10 23/39/10 24/40/10
f 25/41/11 26/42/11 27/43/11 28/44/11
f 21/45/12 24/46/12 28/47/12 25/48/12
f 22/49/13 23/50/13 27/51/13 26/52/13
f 32/53/14 30/54/14 29/55/14 31/56/14
f 33/57/15 34/58/15 36/59/15 35/60/15
f 40/61/16 38/62/16 37/63/16 39/64/16
f 41/65/17 42/66/17 44/67/17 43/68/17
f 48/69/18 46/70/18 45/71/18 47/72/18
f 49/73/19 50/74/19 52/75/19 51/76/19
f 53/77/20 54/78/20 55/79/20 56/80/20
f 53/81/21 56/82/21 60/83/21 57/84/21
f 54/85/22 55/86/22 59/87/22 58/88/22
f 59/89/23 55/90/23 56/91/23 60/92/23
f 63/93/24 62/94/24 61/95/24 64/96/24
f 61/97/25 64/98/25 68/99/25 65/100/25
f 62/101/26 63/102/26 67/103/26 66/104/26
f 69/105/27 70/106/27 71/107/27 72/108/27
f 69/109/28 72/110/28 76/111/28 73/112/28
f 70/113/29 71/114/29 75/115/29 74/116/29
f 77/117/30 78/118/30 79/119/30 80/120/30
f 77/121/31 80/122/31 84/123/31 81/124/31
f 78/125/32 79/126/32 83/127/32 82/128/32
f 88/129/33 86/130/33 85/131/33 87/132/33
f 89/133/34 90/134/34 92/135/34 91/136/34
f 93/137/35 94/138/35 96/139/35 95/140/35
f 100/141/36 98/142/36 97/143/36 99/144/36
f 104/145/37 102/146/37 101/147/37 103/148/37
f 105/149/38 106/150/38 108/151/38 107/152/38
f 109/153/39 110/154/39 112/155/39 111/156/39
f 113/157/40 114/158/40 115/159/40 116/160/40
f 113/161/41 116/162/41 120/163/41 117/164/41
f 114/165/42 115/166/42 119/167/42 118/168/42
f 121/169/43 122/170/43 123/171/43 124/172/43
f 126/173/44 127/174/44 130/175/44 129/176/44
f 125/177/45 128/178/45 132/179/45 131/180/45
f 133/181/46 134/182/46 135/183/46 136/184/46
f 137/185/47 138/186/47 139/187/47 140/188/47
f 141/189/48 142/190/48 143/191/48 144/192/48
f 147/193/49 146/194/49 145/195/49 148/196/49
f 151/197/50 150/198/50 149/199/50 152/200/50
f 153/201/51 154/202/51 155/203/51 156/204/51
f 157/205/52 158/206/52 160/207/52 159/208/52
f 161/209/53 162/210/53 164/211/53 163/212/53
f 168/213/54 166/214/54 165/215/54 167/216/54
f 172/217/55 170/218/55 169/219/55 171/220/55
f 173/221/56 174/222/56 175/223/56 176/224/56
f 177/225/57 178/226/57 179/227/57 180/228/57
f 181/229/58 182/230/58 183/231/58 184/232/58
f 185/233/59 186/234/59 187/235/59 188/236/59
f 189/237/60 190/238/60 191/239/60 192/240/60
f 193/241/61 194/242/61 195/243/61 196/244/61
f 197/245/62 198/246/62 199/247/62 200/248/62
f 201/249/63 202/250/63 203/251/63 204/252/63
f 208/253/64 206/254/64 205/255/64 207/256/64
f 209/257/65 210/258/65 212/259/65 211/260/65
f 213/261/66 214/262/66 216/263/66 215/264/66
f 220/265/67 218/266/67 217/267/67 219/268/67
f 221/269/68 222/270/68 224/271/68 223/272/68
f 225/273/69 226/274/69 228/275/69 227/276/69
f 229/277/70 230/278/70 232/279/70 231/280/70
f 233/281/71 234/282/71 236/283/71 235/284/71
f 237/285/72 238/286/72 240/287/72 239/288/72
f 241/289/73 242/290/73 244/291/73 243/292/73
f 245/293/74 246/294/74 248/295/74 247/296/74
f 249/297/75 250/298/75 252/299/75 251/300/75
f 253/301/76 254/302/76 256/303/76 255/304/76
f 257/305/77 258/306/77 260/307/77 259/308/77
f 261/309/78 262/310/78 264/311/78 263/312/78
f 265/313/79 266/314/79 268/315/79 267/316/79