# Made in Blockbench 5.1.6
mtllib stair_baluster.mtl

o mat a
v 0 0.25 0.125
v 0 0.25 0.0625
v 0 0.25 0.0625
v 0 0.25 0.125
v 0 0.25 -0.0625
v 0 0.25 -0.125
v 0 0.25 -0.125
v 0 0.25 -0.0625
v -0.3125 -0.625 -0.0625
v -0.3125 -0.625 0.0625
v -0.3125 -0.125 0.0625
v -0.3125 -0.125 -0.0625
v -0.4375 -0.25 -0.0625
v -0.4375 -0.75 -0.0625
v -0.4375 -0.25 0.0625
v -0.4375 -0.75 0.0625
v -0.4375 -0.75 -0.0625
v -0.4375 -0.75 0.0625
v -0.4375 -0.25 0.0625
v -0.4375 -0.25 -0.0625
v -0.0625 -0.375 0.0625
v -0.0625 0.125 0.0625
v -0.1875 0 0.0625
v -0.1875 -0.5 0.0625
v -0.0625 -0.375 -0.0625
v -0.0625 0.125 -0.0625
v -0.1875 0 -0.0625
v -0.1875 -0.5 -0.0625
v -0.0625 -0.375 -0.0625
v -0.0625 -0.375 0.0625
v -0.0625 0.125 0.0625
v -0.0625 0.125 -0.0625
v -0.1875 -0.5 -0.0625
v -0.1875 -0.5 0.0625
v -0.1875 0 0.0625
v -0.1875 0 -0.0625
v -0.1875 -0.5 0.0625
v -0.1875 -0.5 -0.0625
v -0.3125 -0.625 -0.0625
v -0.3125 -0.625 0.0625
v 0 -0.3125 0.0625
v 0 -0.3125 -0.0625
v -0.0625 -0.375 -0.0625
v -0.0625 -0.375 0.0625
v -0.1875 0 0.0625
v -0.1875 0 -0.0625
v -0.3125 -0.125 -0.0625
v -0.3125 -0.125 0.0625
v 0 0.1875 0.0625
v 0 0.1875 -0.0625
v -0.0625 0.125 -0.0625
v -0.0625 0.125 0.0625
v -0.5 -0.3125 -0.0625
v -0.5 -0.3125 0.0625
v -0.5 -0.25 0.0625
v -0.5 -0.25 -0.0625
v -0.5 -0.25 -0.125
v -0.5 -0.25 0.125
v -0.5 -0.1875 0.125
v -0.5 -0.1875 -0.125
v -0.5 -0.8125 -0.0625
v -0.5 -0.8125 0.0625
v -0.5 -0.875 0.0625
v -0.5 -0.875 -0.0625
v -0.5 -0.875 -0.125
v -0.5 -0.875 0.125
v -0.5 -0.9375 0.125
v -0.5 -0.9375 -0.125
v -0.4375 -0.25 0.0625
v -0.4375 -0.25 -0.0625
v -0.5 -0.3125 -0.0625
v -0.5 -0.3125 0.0625
v -0.4375 -0.75 0.0625
v -0.4375 -0.75 -0.0625
v -0.5 -0.8125 -0.0625
v -0.5 -0.8125 0.0625
v 0 0.3125 0.125
v 0 0.3125 -0.125
v -0.5 -0.1875 -0.125
v -0.5 -0.1875 0.125
v 0 -0.4375 0.125
v 0 -0.4375 -0.125
v -0.5 -0.9375 -0.125
v -0.5 -0.9375 0.125
v 0 -0.375 -0.125
v 0 -0.4375 -0.125
v -0.5 -0.9375 -0.125
v -0.5 -0.875 -0.125
v 0 -0.375 0.125
v 0 -0.4375 0.125
v -0.5 -0.9375 0.125
v -0.5 -0.875 0.125
v 0 -0.375 -0.0625
v 0 -0.375 -0.125
v -0.5 -0.875 -0.125
v -0.5 -0.875 -0.0625
v 0 -0.375 0.125
v 0 -0.375 0.0625
v -0.5 -0.875 0.0625
v -0.5 -0.875 0.125
v 0 -0.3125 0.0625
v 0 -0.375 0.0625
v -0.5 -0.875 0.0625
v -0.5 -0.8125 0.0625
v 0 -0.3125 -0.0625
v 0 -0.375 -0.0625
v -0.5 -0.875 -0.0625
v -0.5 -0.8125 -0.0625
v -0.5 -0.25 0.125
v -0.5 -0.1875 0.125
v 0 0.3125 0.125
v 0 0.25 0.125
v -0.5 -0.25 0.125
v -0.5 -0.25 0.0625
v 0 0.25 0.0625
v 0 0.25 0.125
v -0.5 -0.3125 0.0625
v -0.5 -0.25 0.0625
v 0 0.25 0.0625
v 0 0.1875 0.0625
v -0.5 -0.3125 -0.0625
v -0.5 -0.25 -0.0625
v 0 0.25 -0.0625
v 0 0.1875 -0.0625
v -0.5 -0.25 -0.0625
v -0.5 -0.25 -0.125
v 0 0.25 -0.125
v 0 0.25 -0.0625
v -0.5 -0.25 -0.125
v -0.5 -0.1875 -0.125
v 0 0.3125 -0.125
v 0 0.25 -0.125
v 0.5 0.75 0.125
v 0.5 0.75 0.0625
v 0.5 0.75 0.0625
v 0.5 0.75 0.125
v 0.5 0.75 -0.0625
v 0.5 0.75 -0.125
v 0.5 0.75 -0.125
v 0.5 0.75 -0.0625
v 0.1875 -0.125 -0.0625
v 0.1875 -0.125 0.0625
v 0.1875 0.375 0.0625
v 0.1875 0.375 -0.0625
v 0.0625 0.25 -0.0625
v 0.0625 -0.25 -0.0625
v 0.0625 0.25 0.0625
v 0.0625 -0.25 0.0625
v 0.0625 -0.25 -0.0625
v 0.0625 -0.25 0.0625
v 0.0625 0.25 0.0625
v 0.0625 0.25 -0.0625
v 0.4375 0.125 0.0625
v 0.4375 0.625 0.0625
v 0.3125 0.5 0.0625
v 0.3125 0 0.0625
v 0.4375 0.125 -0.0625
v 0.4375 0.625 -0.0625
v 0.3125 0.5 -0.0625
v 0.3125 0 -0.0625
v 0.4375 0.125 -0.0625
v 0.4375 0.125 0.0625
v 0.4375 0.625 0.0625
v 0.4375 0.625 -0.0625
v 0.3125 0 -0.0625
v 0.3125 0 0.0625
v 0.3125 0.5 0.0625
v 0.3125 0.5 -0.0625
v 0.3125 0 0.0625
v 0.3125 0 -0.0625
v 0.1875 -0.125 -0.0625
v 0.1875 -0.125 0.0625
v 0.5 0.1875 0.0625
v 0.5 0.1875 -0.0625
v 0.4375 0.125 -0.0625
v 0.4375 0.125 0.0625
v 0.3125 0.5 0.0625
v 0.3125 0.5 -0.0625
v 0.1875 0.375 -0.0625
v 0.1875 0.375 0.0625
v 0.5 0.6875 0.0625
v 0.5 0.6875 -0.0625
v 0.4375 0.625 -0.0625
v 0.4375 0.625 0.0625
v 0.0625 0.25 0.0625
v 0.0625 0.25 -0.0625
v 0 0.1875 -0.0625
v 0 0.1875 0.0625
v 0.0625 -0.25 0.0625
v 0.0625 -0.25 -0.0625
v 0 -0.3125 -0.0625
v 0 -0.3125 0.0625
v 0.5 0.8125 0.125
v 0.5 0.8125 -0.125
v 0 0.3125 -0.125
v 0 0.3125 0.125
v 0.5 0.0625 0.125
v 0.5 0.0625 -0.125
v 0 -0.4375 -0.125
v 0 -0.4375 0.125
v 0.5 0.125 -0.125
v 0.5 0.0625 -0.125
v 0 -0.4375 -0.125
v 0 -0.375 -0.125
v 0.5 0.125 0.125
v 0.5 0.0625 0.125
v 0 -0.4375 0.125
v 0 -0.375 0.125
v 0.5 0.125 -0.0625
v 0.5 0.125 -0.125
v 0 -0.375 -0.125
v 0 -0.375 -0.0625
v 0.5 0.125 0.125
v 0.5 0.125 0.0625
v 0 -0.375 0.0625
v 0 -0.375 0.125
v 0.5 0.1875 0.0625
v 0.5 0.125 0.0625
v 0 -0.375 0.0625
v 0 -0.3125 0.0625
v 0.5 0.1875 -0.0625
v 0.5 0.125 -0.0625
v 0 -0.375 -0.0625
v 0 -0.3125 -0.0625
v 0 0.25 0.125
v 0 0.3125 0.125
v 0.5 0.8125 0.125
v 0.5 0.75 0.125
v 0 0.25 0.125
v 0 0.25 0.0625
v 0.5 0.75 0.0625
v 0.5 0.75 0.125
v 0 0.1875 0.0625
v 0 0.25 0.0625
v 0.5 0.75 0.0625
v 0.5 0.6875 0.0625
v 0 0.1875 -0.0625
v 0 0.25 -0.0625
v 0.5 0.75 -0.0625
v 0.5 0.6875 -0.0625
v 0 0.25 -0.0625
v 0 0.25 -0.125
v 0.5 0.75 -0.125
v 0.5 0.75 -0.0625
v 0 0.25 -0.125
v 0 0.3125 -0.125
v 0.5 0.8125 -0.125
v 0.5 0.75 -0.125
v 0.5 0.6875 -0.0625
v 0.5 0.6875 0.0625
v 0.5 0.75 0.0625
v 0.5 0.75 -0.0625
v 0.5 0.75 -0.125
v 0.5 0.75 0.125
v 0.5 0.8125 0.125
v 0.5 0.8125 -0.125
v 0.5 0.125 0.0625
v 0.5 0.1875 0.0625
v 0.5 0.1875 -0.0625
v 0.5 0.125 -0.0625
v 0.5 0.0625 0.125
v 0.5 0.125 0.125
v 0.5 0.125 -0.125
v 0.5 0.0625 -0.125
vt 1 0
vt 1 1
vt 0 1
vt 0 0
vt 1 0
vt 1 1
vt 0 1
vt 0 0
vt 0.5625 0
vt 0.4375 0
vt 0.4375 0.5
vt 0.5625 0.5
vt 0.8125 0.25
vt 0.8125 0.75
vt 0.9375 0.625
vt 0.9375 0.125
vt 0.1875 0.25
vt 0.1875 0.75
vt 0.0625 0.625
vt 0.0625 0.125
vt 0.4375 0.0625
vt 0.5625 0.0625
vt 0.5625 0.5625
vt 0.4375 0.5625
vt 0.5 0.1875
vt 0.5 0.6875
vt 0.375 0.5625
vt 0.375 0.0625
vt 0.375 0.375
vt 0.375 0.875
vt 0.5 0.75
vt 0.5 0.25
vt 0.5625 0.0625
vt 0.4375 0.0625
vt 0.4375 0.5625
vt 0.5625 0.5625
vt 0.4375 0
vt 0.5625 0
vt 0.5625 0.5
vt 0.4375 0.5
vt 0.5625 0.3125
vt 0.4375 0.3125
vt 0.4375 0.1875
vt 0.5625 0.1875
vt 0.5625 0.3125
vt 0.4375 0.3125
vt 0.4375 0.25
vt 0.5625 0.25
vt 0.4375 0.6250000000000012
vt 0.5625 0.6250000000000012
vt 0.5625 0.4482250000000012
vt 0.4375 0.4482250000000012
vt 0.5625 0.6875
vt 0.4375 0.6875
vt 0.4375 0.625
vt 0.5625 0.625
vt 0.4375 0
vt 0.5625 0
vt 0.5625 0.0625
vt 0.4375 0.0625
vt 0.375 0.0625
vt 0.625 0.0625
vt 0.625 0.125
vt 0.375 0.125
vt 0.4375 0.0625
vt 0.5625 0.0625
vt 0.5625 0
vt 0.4375 0
vt 0.375 0.0625
vt 0.625 0.0625
vt 0.625 0
vt 0.375 0
vt 0.5625 0.5
vt 0.4375 0.5
vt 0.4375 0.4375
vt 0.5625 0.4375
vt 0.5625 0.1875
vt 0.4375 0.1875
vt 0.4375 0.125
vt 0.5625 0.125
vt 0.625 0.70710625
vt 0.375 0.70710625
vt 0.375 0
vt 0.625 0
vt 0.375 0.8750000000000004
vt 0.625 0.8750000000000004
vt 0.625 0.1678875000000004
vt 0.375 0.1678875000000004
vt 0.5 0.5625
vt 0.5 0.5
vt 1 0
vt 1 0.0625
vt 0.5 0.5625
vt 0.5 0.5
vt 0 0
vt 0 0.0625
vt 0.9375 0.4375
vt 0.9375 0.5
vt 0.375 0.5
vt 0.375 0.4375
vt 0.6875 0.5
vt 0.6875 0.5625
vt 0 0.5625
vt 0 0.5
vt 0.5 0.625
vt 0.5 0.5625
vt 0 0.0625
vt 0 0.125
vt 0.5 0.625
vt 0.5 0.5625
vt 1 0.0625
vt 1 0.125
vt 0 0.4375
vt 0 0.5
vt 0.5 1
vt 0.5 0.9375
vt 0.1875 0.6875
vt 0.1875 0.625
vt 0.875 0.625
vt 0.875 0.6875
vt 0 0.375
vt 0 0.4375
vt 0.5 0.9375
vt 0.5 0.875
vt 1 0.375
vt 1 0.4375
vt 0.5 0.9375
vt 0.5 0.875
vt 0.9375 0.5
vt 0.9375 0.4375
vt 0.25 0.4375
vt 0.25 0.5
vt 1 0.4375
vt 1 0.5
vt 0.5 1
vt 0.5 0.9375
vt 1 0
vt 1 1
vt 0 1
vt 0 0
vt 1 0
vt 1 1
vt 0 1
vt 0 0
vt 0.5625 0
vt 0.4375 0
vt 0.4375 0.5
vt 0.5625 0.5
vt 0.8125 0.25
vt 0.8125 0.75
vt 0.9375 0.625
vt 0.9375 0.125
vt 0.1875 0.25
vt 0.1875 0.75
vt 0.0625 0.625
vt 0.0625 0.125
vt 0.4375 0.0625
vt 0.5625 0.0625
vt 0.5625 0.5625
vt 0.4375 0.5625
vt 0.5 0.1875
vt 0.5 0.6875
vt 0.375 0.5625
vt 0.375 0.0625
vt 0.375 0.375
vt 0.375 0.875
vt 0.5 0.75
vt 0.5 0.25
vt 0.5625 0.0625
vt 0.4375 0.0625
vt 0.4375 0.5625
vt 0.5625 0.5625
vt 0.4375 0
vt 0.5625 0
vt 0.5625 0.5
vt 0.4375 0.5
vt 0.5625 0.3125
vt 0.4375 0.3125
vt 0.4375 0.1875
vt 0.5625 0.1875
vt 0.5625 0.3125
vt 0.4375 0.3125
vt 0.4375 0.25
vt 0.5625 0.25
vt 0.4375 0.6250000000000012
vt 0.5625 0.6250000000000012
vt 0.5625 0.4482250000000012
vt 0.4375 0.4482250000000012
vt 0.5625 0.6875
vt 0.4375 0.6875
vt 0.4375 0.625
vt 0.5625 0.625
vt 0.5625 0.5
vt 0.4375 0.5
vt 0.4375 0.4375
vt 0.5625 0.4375
vt 0.5625 0.1875
vt 0.4375 0.1875
vt 0.4375 0.125
vt 0.5625 0.125
vt 0.625 0.70710625
vt 0.375 0.70710625
vt 0.375 0
vt 0.625 0
vt 0.375 0.8750000000000004
vt 0.625 0.8750000000000004
vt 0.625 0.1678875000000004
vt 0.375 0.1678875000000004
vt 0.5 0.5625
vt 0.5 0.5
vt 1 0
vt 1 0.0625
vt 0.5 0.5625
vt 0.5 0.5
vt 0 0
vt 0 0.0625
vt 0.9375 0.4375
vt 0.9375 0.5
vt 0.375 0.5
vt 0.375 0.4375
vt 0.6875 0.5
vt 0.6875 0.5625
vt 0 0.5625
vt 0 0.5
vt 0.5 0.625
vt 0.5 0.5625
vt 0 0.0625
vt 0 0.125
vt 0.5 0.625
vt 0.5 0.5625
vt 1 0.0625
vt 1 0.125
vt 0 0.4375
vt 0 0.5
vt 0.5 1
vt 0.5 0.9375
vt 0.1875 0.6875
vt 0.1875 0.625
vt 0.875 0.625
vt 0.875 0.6875
vt 0 0.375
vt 0 0.4375
vt 0.5 0.9375
vt 0.5 0.875
vt 1 0.375
vt 1 0.4375
vt 0.5 0.9375
vt 0.5 0.875
vt 0.9375 0.5
vt 0.9375 0.4375
vt 0.25 0.4375
vt 0.25 0.5
vt 1 0.4375
vt 1 0.5
vt 0.5 1
vt 0.5 0.9375
vt 0 1
vt 0 1
vt 0 1
vt 0 1
vt 0 1
vt 0 1
vt 0 1
vt 0 1
vt 0 1
vt 0 1
vt 0 1
vt 0 1
vt 0 1
vt 0 1
vt 0 1
vt 0 1
vn 0 0 0
vn 0 0 0
vn -1 0 0
vn 0 0 1
vn 0 0 1
vn -1 0 0
vn 0 0 1
vn 0 0 1
vn -1 0 0
vn -1 0 0
vn -0.7071067811865476 0.7071067811865476 0
vn -0.7071067811865476 0.7071067811865476 0
vn -0.7071067811865476 0.7071067811865476 0
vn -0.7071067811865476 0.7071067811865476 0
vn -1 0 0
vn -1 0 0
vn 1 0 0
vn 1 0 0
vn -0.7071067811865476 0.7071067811865476 0
vn -0.7071067811865476 0.7071067811865476 0
vn -0.7071067811865476 0.7071067811865476 0
vn -0.7071067811865476 0.7071067811865476 0
vn 0 0 -1
vn 0 0 -1
vn -0.7071067811865476 0.7071067811865476 0
vn -0.7071067811865476 0.7071067811865476 0
vn 0 0 -1
vn 0 0 -1
vn 0 0 -1
vn 0.7071067811865476 -0.7071067811865476 0
vn 0 0 -1
vn 0 0 -1
vn 0.7071067811865476 -0.7071067811865476 0
vn 0 0 -1
vn 0 0 0
vn 0 0 0
vn -1 0 0
vn 0 0 1
vn 0 0 1
vn -1 0 0
vn 0 0 1
vn 0 0 1
vn -1 0 0
vn -1 0 0
vn -0.7071067811865476 0.7071067811865476 0
vn -0.7071067811865476 0.7071067811865476 0
vn -0.7071067811865476 0.7071067811865476 0
vn -0.7071067811865476 0.7071067811865476 0
vn -0.7071067811865476 0.7071067811865476 0
vn -0.7071067811865476 0.7071067811865476 0
vn -0.7071067811865476 0.7071067811865476 0
vn -0.7071067811865476 0.7071067811865476 0
vn 0 0 -1
vn 0 0 -1
vn -0.7071067811865476 0.7071067811865476 0
vn -0.7071067811865476 0.7071067811865476 0
vn 0 0 -1
vn 0 0 -1
vn 0 0 -1
vn 0.7071067811865476 -0.7071067811865476 0
vn 0 0 -1
vn 0 0 -1
vn 0.7071067811865476 -0.7071067811865476 0
vn 0 0 -1
vn -1 0 0
vn -1 0 0
vn -1 0 0
vn -1 0 0
usemtl m_d8d07f08-b106-5714-9422-262f1eb7dcf3
f 1/1/1 2/2/1 3/3/1 4/4/1
f 5/5/2 6/6/2 7/7/2 8/8/2
f 9/9/3 10/10/3 11/11/3 12/12/3
f 9/13/4 12/14/4 13/15/4 14/16/4
f 10/17/5 11/18/5 15/19/5 16/20/5
f 17/21/6 18/22/6 19/23/6 20/24/6
f 21/25/7 22/26/7 23/27/7 24/28/7
f 25/29/8 26/30/8 27/31/8 28/32/8
f 29/33/9 30/34/9 31/35/9 32/36/9
f 33/37/10 34/38/10 35/39/10 36/40/10
f 37/41/11 38/42/11 39/43/11 40/44/11
f 41/45/12 42/46/12 43/47/12 44/48/12
f 45/49/13 46/50/13 47/51/13 48/52/13
f 49/53/14 50/54/14 51/55/14 52/56/14
f 53/57/15 54/58/15 55/59/15 56/60/15
f 57/61/16 58/62/16 59/63/16 60/64/16
f 61/65/17 62/66/17 63/67/17 64/68/17
f 65/69/18 66/70/18 67/71/18 68/72/18
f 69/73/19 70/74/19 71/75/19 72/76/19
f 73/77/20 74/78/20 75/79/20 76/80/20
f 77/81/21 78/82/21 79/83/21 80/84/21
f 81/85/22 82/86/22 83/87/22 84/88/22
f 85/89/23 86/90/23 87/91/23 88/92/23
f 89/93/24 90/94/24 91/95/24 92/96/24
f 93/97/25 94/98/25 95/99/25 96/100/25
f 97/101/26 98/102/26 99/103/26 100/104/26
f 101/105/27 102/106/27 103/107/27 104/108/27
f 105/109/28 106/110/28 107/111/28 108/112/28
f 109/113/29 110/114/29 111/115/29 112/116/29
f 113/117/30 114/118/30 115/119/30 116/120/30
f 117/121/31 118/122/31 119/123/31 120/124/31
f 121/125/32 122/126/32 123/127/32 124/128/32
f 125/129/33 126/130/33 127/131/33 128/132/33
f 129/133/34 130/134/34 131/135/34 132/136/34
f 133/137/35 134/138/35 135/139/35 136/140/35
f 137/141/36 138/142/36 139/143/36 140/144/36
f 141/145/37 142/146/37 143/147/37 144/148/37
f 141/149/38 144/150/38 145/151/38 146/152/38
f 142/153/39 143/154/39 147/155/39 148/156/39
f 149/157/40 150/158/40 151/159/40 152/160/40
f 153/161/41 154/162/41 155/163/41 156/164/41
f 157/165/42 158/166/42 159/167/42 160/168/42
f 161/169/43 162/170/43 163/171/43 164/172/43
f 165/173/44 166/174/44 167/175/44 168/176/44
f 169/177/45 170/178/45 171/179/45 172/180/45
f 173/181/46 174/182/46 175/183/46 176/184/46
f 177/185/47 178/186/47 179/187/47 180/188/47
f 181/189/48 182/190/48 183/191/48 184/192/48
f 185/193/49 186/194/49 187/195/49 188/196/49
f 189/197/50 190/198/50 191/199/50 192/200/50
f 193/201/51 194/202/51 195/203/51 196/204/51
f 197/205/52 198/206/52 199/207/52 200/208/52
f 201/209/53 202/210/53 203/211/53 204/212/53
f 205/213/54 206/214/54 207/215/54 208/216/54
f 209/217/55 210/218/55 211/219/55 212/220/55
f 213/221/56 214/222/56 215/223/56 216/224/56
f 217/225/57 218/226/57 219/227/57 220/228/57
f 221/229/58 222/230/58 223/231/58 224/232/58
f 225/233/59 226/234/59 227/235/59 228/236/59
f 229/237/60 230/238/60 231/239/60 232/240/60
f 233/241/61 234/242/61 235/243/61 236/244/61
f 237/245/62 238/246/62 239/247/62 240/248/62
f 241/249/63 242/250/63 243/251/63 244/252/63
f 245/253/64 246/254/64 247/255/64 248/256/64
f 249/257/65 250/258/65 251/259/65 252/260/65
f 253/261/66 254/262/66 255/263/66 256/264/66
f 257/265/67 258/266/67 259/267/67 260/268/67
f 261/269/68 262/270/68 263/271/68 264/272/68