# Made in Blockbench 5.1.6
mtllib stair_baluster_lower.mtl

o mat a
v 0.5 0.75 0.125
v 0.5 0.75 0.0625
v 0.5 0.75 0.0625
v 0.5 0.75 0.125
v 0.5 0.75 -0.0625
v 0.5 0.75 -0.125
v 0.5 0.75 -0.125
v 0.5 0.75 -0.0625
v 0.1875 -0.125 -0.0625
v 0.1875 -0.125 0.0625
v 0.1875 0.375 0.0625
v 0.1875 0.375 -0.0625
v 0.0625 0.25 -0.0625
v 0.0625 -0.25 -0.0625
v 0.0625 0.25 0.0625
v 0.0625 -0.25 0.0625
v 0.0625 -0.25 -0.0625
v 0.0625 -0.25 0.0625
v 0.0625 0.25 0.0625
v 0.0625 0.25 -0.0625
v 0.4375 0.125 0.0625
v 0.4375 0.625 0.0625
v 0.3125 0.5 0.0625
v 0.3125 0 0.0625
v 0.4375 0.125 -0.0625
v 0.4375 0.625 -0.0625
v 0.3125 0.5 -0.0625
v 0.3125 0 -0.0625
v 0.4375 0.125 -0.0625
v 0.4375 0.125 0.0625
v 0.4375 0.625 0.0625
v 0.4375 0.625 -0.0625
v 0.3125 0 -0.0625
v 0.3125 0 0.0625
v 0.3125 0.5 0.0625
v 0.3125 0.5 -0.0625
v 0.3125 0 0.0625
v 0.3125 0 -0.0625
v 0.1875 -0.125 -0.0625
v 0.1875 -0.125 0.0625
v 0.5 0.1875 0.0625
v 0.5 0.1875 -0.0625
v 0.4375 0.125 -0.0625
v 0.4375 0.125 0.0625
v 0.3125 0.5 0.0625
v 0.3125 0.5 -0.0625
v 0.1875 0.375 -0.0625
v 0.1875 0.375 0.0625
v 0.5 0.6875 0.0625
v 0.5 0.6875 -0.0625
v 0.4375 0.625 -0.0625
v 0.4375 0.625 0.0625
v 0.0625 0.25 0.0625
v 0.0625 0.25 -0.0625
v 0 0.1875 -0.0625
v 0 0.1875 0.0625
v 0.0625 -0.25 0.0625
v 0.0625 -0.25 -0.0625
v 0 -0.3125 -0.0625
v 0 -0.3125 0.0625
v 0.5 0.8125 0.125
v 0.5 0.8125 -0.125
v 0 0.3125 -0.125
v 0 0.3125 0.125
v 0.5 0.0625 0.125
v 0.5 0.0625 -0.125
v 0 -0.4375 -0.125
v 0 -0.4375 0.125
v 0.5 0.125 -0.125
v 0.5 0.0625 -0.125
v 0 -0.4375 -0.125
v 0 -0.375 -0.125
v 0.5 0.125 0.125
v 0.5 0.0625 0.125
v 0 -0.4375 0.125
v 0 -0.375 0.125
v 0.5 0.125 -0.0625
v 0.5 0.125 -0.125
v 0 -0.375 -0.125
v 0 -0.375 -0.0625
v 0.5 0.125 0.125
v 0.5 0.125 0.0625
v 0 -0.375 0.0625
v 0 -0.375 0.125
v 0.5 0.1875 0.0625
v 0.5 0.125 0.0625
v 0 -0.375 0.0625
v 0 -0.3125 0.0625
v 0.5 0.1875 -0.0625
v 0.5 0.125 -0.0625
v 0 -0.375 -0.0625
v 0 -0.3125 -0.0625
v 0 0.25 0.125
v 0 0.3125 0.125
v 0.5 0.8125 0.125
v 0.5 0.75 0.125
v 0 0.25 0.125
v 0 0.25 0.0625
v 0.5 0.75 0.0625
v 0.5 0.75 0.125
v 0 0.1875 0.0625
v 0 0.25 0.0625
v 0.5 0.75 0.0625
v 0.5 0.6875 0.0625
v 0 0.1875 -0.0625
v 0 0.25 -0.0625
v 0.5 0.75 -0.0625
v 0.5 0.6875 -0.0625
v 0 0.25 -0.0625
v 0 0.25 -0.125
v 0.5 0.75 -0.125
v 0.5 0.75 -0.0625
v 0 0.25 -0.125
v 0 0.3125 -0.125
v 0.5 0.8125 -0.125
v 0.5 0.75 -0.125
v 0.5 0.75 -0.125
v 0.5 0.75 0.125
v 0.5 0.8125 0.125
v 0.5 0.8125 -0.125
v 0.5 0.0625 -0.125
v 0.5 0.0625 0.125
v 0.5 0.125 0.125
v 0.5 0.125 -0.125
v 0.5 0.6875 -0.0625
v 0.5 0.6875 0.0625
v 0.5 0.75 0.0625
v 0.5 0.75 -0.0625
v 0.5 0.125 -0.0625
v 0.5 0.125 0.0625
v 0.5 0.1875 0.0625
v 0.5 0.1875 -0.0625
v -0.1875 -0.5 -0.0625
v -0.1875 -0.5 0.0625
v -0.3125 -0.5 0.0625
v -0.3125 -0.5 -0.0625
v -0.1875 -0.5 -0.0625
v -0.1875 -0.5 0.0625
v -0.1875 -0.4375 0.0625
v -0.1875 -0.4375 -0.0625
v -0.3125 -0.5 -0.0625
v -0.3125 -0.5 0.0625
v -0.3125 -0.4375 0.0625
v -0.3125 -0.4375 -0.0625
v -0.3125 -0.3125 -0.0625
v -0.3125 -0.3125 0.0625
v -0.3125 0.1875 0.0625
v -0.3125 0.1875 -0.0625
v -0.4375 -0.3125 -0.0625
v -0.4375 -0.3125 0.0625
v -0.4375 0.1875 0.0625
v -0.4375 0.1875 -0.0625
v -0.0625 -0.3125 -0.0625
v -0.0625 -0.3125 0.0625
v -0.0625 0.1875 0.0625
v -0.0625 0.1875 -0.0625
v -0.1875 -0.3125 -0.0625
v -0.1875 -0.3125 0.0625
v -0.1875 0.1875 0.0625
v -0.1875 0.1875 -0.0625
v -0.4375 0.1875 0.0625
v -0.4375 0.1875 -0.0625
v -0.5 0.1875 -0.0625
v -0.5 0.1875 0.0625
v -0.4375 -0.3125 0.0625
v -0.4375 -0.3125 -0.0625
v -0.5 -0.3125 -0.0625
v -0.5 -0.3125 0.0625
v -0.1875 0.1875 0.0625
v -0.1875 0.1875 -0.0625
v -0.3125 0.1875 -0.0625
v -0.3125 0.1875 0.0625
v -0.1875 -0.3125 0.0625
v -0.1875 -0.3125 -0.0625
v -0.3125 -0.3125 -0.0625
v -0.3125 -0.3125 0.0625
v 0 0.1875 0.0625
v 0 0.1875 -0.0625
v -0.0625 0.1875 -0.0625
v -0.0625 0.1875 0.0625
v 0 -0.3125 0.0625
v 0 -0.3125 -0.0625
v -0.0625 -0.3125 -0.0625
v -0.0625 -0.3125 0.0625
v 0 0.25 -0.125
v 0 0.25 0.125
v 0 0.3125 0.125
v 0 0.3125 -0.125
v -0.5 0.3125 -0.125
v -0.5 0.25 -0.125
v -0.5 0.3125 0.125
v -0.5 0.25 0.125
v 0 -0.375 0.125
v 0 -0.4375 0.125
v 0 -0.4375 -0.125
v 0 -0.375 -0.125
v -0.5 -0.375 -0.125
v -0.5 -0.4375 -0.125
v -0.5 -0.375 0.125
v -0.5 -0.4375 0.125
v 0 0.1875 -0.0625
v 0 0.1875 0.0625
v 0 0.25 0.0625
v 0 0.25 -0.0625
v -0.5 0.25 -0.0625
v -0.5 0.1875 -0.0625
v -0.5 0.25 0.0625
v -0.5 0.1875 0.0625
v 0 -0.375 -0.0625
v 0 -0.375 0.0625
v 0 -0.3125 0.0625
v 0 -0.3125 -0.0625
v -0.5 -0.3125 -0.0625
v -0.5 -0.375 -0.0625
v -0.5 -0.3125 0.0625
v -0.5 -0.375 0.0625
v 0 -0.4375 0.125
v 0 -0.4375 -0.125
v -0.5 -0.4375 -0.125
v -0.5 -0.4375 0.125
v 0 -0.375 -0.0625
v 0 -0.375 -0.125
v -0.5 -0.375 -0.125
v -0.5 -0.375 -0.0625
v 0 -0.375 0.125
v 0 -0.375 0.0625
v -0.5 -0.375 0.0625
v -0.5 -0.375 0.125
v 0 0.25 -0.0625
v 0 0.25 -0.125
v -0.5 0.25 -0.125
v -0.5 0.25 -0.0625
v 0 0.25 0.125
v 0 0.25 0.0625
v -0.5 0.25 0.0625
v -0.5 0.25 0.125
v -0.5 0.25 -0.125
v -0.5 0.25 0.125
v -0.5 0.3125 0.125
v -0.5 0.3125 -0.125
v -0.5 -0.4375 -0.125
v -0.5 -0.4375 0.125
v -0.5 -0.375 0.125
v -0.5 -0.375 -0.125
v -0.5 0.1875 -0.0625
v -0.5 0.1875 0.0625
v -0.5 0.25 0.0625
v -0.5 0.25 -0.0625
v -0.5 -0.375 -0.0625
v -0.5 -0.375 0.0625
v -0.5 -0.3125 0.0625
v -0.5 -0.3125 -0.0625
vt 1 0
vt 1 1
vt 0 1
vt 0 0
vt 1 0
vt 1 1
vt 0 1
vt 0 0
vt 0.5625 0
vt 0.4375 0
vt 0.4375 0.5
vt 0.5625 0.5
vt 0.8125 0.25
vt 0.8125 0.75
vt 0.9375 0.625
vt 0.9375 0.125
vt 0.1875 0.25
vt 0.1875 0.75
vt 0.0625 0.625
vt 0.0625 0.125
vt 0.4375 0.0625
vt 0.5625 0.0625
vt 0.5625 0.5625
vt 0.4375 0.5625
vt 0.5 0.1875
vt 0.5 0.6875
vt 0.375 0.5625
vt 0.375 0.0625
vt 0.375 0.375
vt 0.375 0.875
vt 0.5 0.75
vt 0.5 0.25
vt 0.5625 0.0625
vt 0.4375 0.0625
vt 0.4375 0.5625
vt 0.5625 0.5625
vt 0.4375 0
vt 0.5625 0
vt 0.5625 0.5
vt 0.4375 0.5
vt 0.5625 0.3125
vt 0.4375 0.3125
vt 0.4375 0.1875
vt 0.5625 0.1875
vt 0.5625 0.3125
vt 0.4375 0.3125
vt 0.4375 0.25
vt 0.5625 0.25
vt 0.5625 0.4482250000000012
vt 0.5625 0.6250000000000012
vt 0.4375 0.6250000000000012
vt 0.4375 0.4482250000000012
vt 0.4375 0.625
vt 0.4375 0.6875
vt 0.5625 0.6875
vt 0.5625 0.625
vt 0.4375 0.4375
vt 0.4375 0.5
vt 0.5625 0.5
vt 0.5625 0.4375
vt 0.5625 0.1875
vt 0.4375 0.1875
vt 0.4375 0.125
vt 0.5625 0.125
vt 0.625 0.70710625
vt 0.375 0.70710625
vt 0.375 0
vt 0.625 0
vt 0.625 0.1678875000000004
vt 0.625 0.8750000000000004
vt 0.375 0.8750000000000004
vt 0.375 0.1678875000000004
vt 0.5 0.5625
vt 0.5 0.5
vt 1 0
vt 1 0.0625
vt 0.5 0.5625
vt 0.5 0.5
vt 0 0
vt 0 0.0625
vt 0.9375 0.4375
vt 0.9375 0.5
vt 0.375 0.5
vt 0.375 0.4375
vt 0.6875 0.5
vt 0.6875 0.5625
vt 0 0.5625
vt 0 0.5
vt 0.5 0.625
vt 0.5 0.5625
vt 0 0.0625
vt 0 0.125
vt 0.5 0.625
vt 0.5 0.5625
vt 1 0.0625
vt 1 0.125
vt 0 0.4375
vt 0 0.5
vt 0.5 1
vt 0.5 0.9375
vt 0.1875 0.6875
vt 0.1875 0.625
vt 0.875 0.625
vt 0.875 0.6875
vt 0 0.375
vt 0 0.4375
vt 0.5 0.9375
vt 0.5 0.875
vt 1 0.375
vt 1 0.4375
vt 0.5 0.9375
vt 0.5 0.875
vt 0.9375 0.5
vt 0.9375 0.4375
vt 0.25 0.4375
vt 0.25 0.5
vt 1 0.4375
vt 1 0.5
vt 0.5 1
vt 0.5 0.9375
vt 0 1
vt 0 1
vt 0 1
vt 0 1
vt 0 1
vt 0 1
vt 0 1
vt 0 1
vt 0 1
vt 0 1
vt 0 1
vt 0 1
vt 0 1
vt 0 1
vt 0 1
vt 0 1
vt 0.375 0.4375
vt 0.375 0.5625
vt 0.5 0.5625
vt 0.5 0.4375
vt 0.4375 0
vt 0.5625 0
vt 0.5625 0.0625
vt 0.4375 0.0625
vt 0.375 0.9375
vt 0.5 0.9375
vt 0.5 1
vt 0.375 1
vt 0.375 0.9375
vt 0.375 1
vt 0.5 1
vt 0.5 0.9375
vt 0.5 0.9375
vt 0.5 1
vt 0.375 1
vt 0.375 0.9375
vt 0.5625 0.125
vt 0.4375 0.125
vt 0.4375 0.625
vt 0.5625 0.625
vt 0.4375 0.375
vt 0.5625 0.375
vt 0.5625 0.875
vt 0.4375 0.875
vt 0.3125 0.1875
vt 0.3125 0.6875
vt 0.4375 0.6875
vt 0.4375 0.1875
vt 0.75 0.1875
vt 0.75 0.6875
vt 0.625 0.6875
vt 0.625 0.1875
vt 0.5625 0.125
vt 0.4375 0.125
vt 0.4375 0.625
vt 0.5625 0.625
vt 0.4375 0.375
vt 0.5625 0.375
vt 0.5625 0.875
vt 0.4375 0.875
vt 0.1875 0.1875
vt 0.1875 0.6875
vt 0.0625 0.6875
vt 0.0625 0.1875
vt 1 0.1875
vt 1 0.6875
vt 0.875 0.6875
vt 0.875 0.1875
vt 0.4375 0.5625
vt 0.4375 0.5
vt 0.5625 0.5
vt 0.5625 0.5625
vt 0.5625 0.5625
vt 0.4375 0.5625
vt 0.4375 0.625
vt 0.5625 0.625
vt 0.4375 0.9375
vt 0.5625 0.9375
vt 0.5625 0.8125
vt 0.4375 0.8125
vt 0.5625 0.8125
vt 0.5625 0.6875
vt 0.4375 0.6875
vt 0.4375 0.8125
vt 0.5625 1
vt 0.5625 0.9375
vt 0.4375 0.9375
vt 0.4375 1
vt 0.5625 0.9375
vt 0.4375 0.9375
vt 0.4375 1
vt 0.5625 1
vt 0 0.9375
vt 0 1
vt 0.5 1
vt 0.5 0.9375
vt 1 0.9375
vt 1 1
vt 0.5 1
vt 0.5 0.9375
vt 0.625 0.5
vt 0.625 1
vt 0.375 1
vt 0.375 0.5
vt 0 0.0625
vt 0 0.125
vt 0.5 0.125
vt 0.5 0.0625
vt 1 0.0625
vt 1 0.125
vt 0.5 0.125
vt 0.5 0.0625
vt 0 0.875
vt 0 0.9375
vt 0.5 0.9375
vt 0.5 0.875
vt 1 0.875
vt 1 0.9375
vt 0.5 0.9375
vt 0.5 0.875
vt 0 0.125
vt 0 0.1875
vt 0.5 0.1875
vt 0.5 0.125
vt 1 0.125
vt 1 0.1875
vt 0.5 0.1875
vt 0.5 0.125
vt 0.625 0.25
vt 0.625 0.75
vt 0.375 0.75
vt 0.375 0.25
vt 0.5 0.1875
vt 0.5 0.25
vt 0 0.25
vt 0 0.1875
vt 1 0.4375
vt 1 0.5
vt 0.5 0.5
vt 0.5 0.4375
vt 0 0.25
vt 0.5 0.25
vt 0.5 0.1875
vt 0 0.1875
vt 0.5 0.5
vt 1 0.5
vt 1 0.4375
vt 0.5 0.4375
vt 0 1
vt 0 1
vt 0 1
vt 0 1
vt 0 1
vt 0 1
vt 0 1
vt 0 1
vt 0 1
vt 0 1
vt 0 1
vt 0 1
vt 0 1
vt 0 1
vt 0 1
vt 0 1
vn 0 0 0
vn 0 0 0
vn -1 0 0
vn 0 0 1
vn 0 0 1
vn -1 0 0
vn 0 0 1
vn 0 0 1
vn -1 0 0
vn -1 0 0
vn -0.7071067811865476 0.7071067811865476 0
vn -0.7071067811865476 0.7071067811865476 0
vn 0.7071067811865476 -0.7071067811865476 0
vn 0.7071067811865476 -0.7071067811865476 0
vn 0.7071067811865476 -0.7071067811865476 0
vn -0.7071067811865476 0.7071067811865476 0
vn -0.7071067811865476 0.7071067811865476 0
vn 0.7071067811865476 -0.7071067811865476 0
vn 0 0 -1
vn 0 0 -1
vn -0.7071067811865476 0.7071067811865476 0
vn -0.7071067811865476 0.7071067811865476 0
vn 0 0 -1
vn 0 0 -1
vn 0 0 -1
vn 0.7071067811865476 -0.7071067811865476 0
vn 0 0 -1
vn 0 0 -1
vn 0.7071067811865476 -0.7071067811865476 0
vn 0 0 -1
vn -1 0 0
vn -1 0 0
vn -1 0 0
vn -1 0 0
vn 0 -1 0
vn -1 0 0
vn -1 0 0
vn 0 0 1
vn 0 0 1
vn -1 0 0
vn -1 0 0
vn 0 0 1
vn 0 0 1
vn -1 0 0
vn -1 0 0
vn 0 0 1
vn 0 0 1
vn 0 -1 0
vn 0 1 0
vn 0 -1 0
vn 0 1 0
vn 0 -1 0
vn 0 1 0
vn 0 0 1
vn 0 0 1
vn 0 1 0
vn 0 0 1
vn 0 0 1
vn 0 0 1
vn 0 0 1
vn 0 0 1
vn 0 0 1
vn 0 -1 0
vn 0 1 0
vn 0 1 0
vn 0 -1 0
vn 0 -1 0
vn -1 0 0
vn -1 0 0
vn -1 0 0
vn -1 0 0
usemtl m_e463a8f4-fd10-2cb2-bb53-d26e7c0aeafb
f 1/1/1 2/2/1 3/3/1 4/4/1
f 5/5/2 6/6/2 7/7/2 8/8/2
f 9/9/3 10/10/3 11/11/3 12/12/3
f 9/13/4 12/14/4 13/15/4 14/16/4
f 10/17/5 11/18/5 15/19/5 16/20/5
f 17/21/6 18/22/6 19/23/6 20/24/6
f 21/25/7 22/26/7 23/27/7 24/28/7
f 25/29/8 26/30/8 27/31/8 28/32/8
f 29/33/9 30/34/9 31/35/9 32/36/9
f 33/37/10 34/38/10 35/39/10 36/40/10
f 37/41/11 38/42/11 39/43/11 40/44/11
f 41/45/12 42/46/12 43/47/12 44/48/12
f 47/49/13 46/50/13 45/51/13 48/52/13
f 51/53/14 50/54/14 49/55/14 52/56/14
f 55/57/15 54/58/15 53/59/15 56/60/15
f 57/61/16 58/62/16 59/63/16 60/64/16
f 61/65/17 62/66/17 63/67/17 64/68/17
f 67/69/18 66/70/18 65/71/18 68/72/18
f 69/73/19 70/74/19 71/75/19 72/76/19
f 73/77/20 74/78/20 75/79/20 76/80/20
f 77/81/21 78/82/21 79/83/21 80/84/21
f 81/85/22 82/86/22 83/87/22 84/88/22
f 85/89/23 86/90/23 87/91/23 88/92/23
f 89/93/24 90/94/24 91/95/24 92/96/24
f 93/97/25 94/98/25 95/99/25 96/100/25
f 97/101/26 98/102/26 99/103/26 100/104/26
f 101/105/27 102/106/27 103/107/27 104/108/27
f 105/109/28 106/110/28 107/111/28 108/112/28
f 109/113/29 110/114/29 111/115/29 112/116/29
f 113/117/30 114/118/30 115/119/30 116/120/30
f 117/121/31 118/122/31 119/123/31 120/124/31
f 121/125/32 122/126/32 123/127/32 124/128/32
f 125/129/33 126/130/33 127/131/33 128/132/33
f 129/133/34 130/134/34 131/135/34 132/136/34
f 133/137/35 134/138/35 135/139/35 136/140/35
f 137/141/36 138/142/36 139/143/36 140/144/36
f 141/145/37 142/146/37 143/147/37 144/148/37
f 137/149/38 140/150/38 144/151/38 141/152/38
f 138/153/39 139/154/39 143/155/39 142/156/39
f 145/157/40 146/158/40 147/159/40 148/160/40
f 149/161/41 150/162/41 151/163/41 152/164/41
f 145/165/42 148/166/42 152/167/42 149/168/42
f 146/169/43 147/170/43 151/171/43 150/172/43
f 153/173/44 154/174/44 155/175/44 156/176/44
f 157/177/45 158/178/45 159/179/45 160/180/45
f 153/181/46 156/182/46 160/183/46 157/184/46
f 154/185/47 155/186/47 159/187/47 158/188/47
f 163/189/48 162/190/48 161/191/48 164/192/48
f 165/193/49 166/194/49 167/195/49 168/196/49
f 171/197/50 170/198/50 169/199/50 172/200/50
f 173/201/51 174/202/51 175/203/51 176/204/51
f 179/205/52 178/206/52 177/207/52 180/208/52
f 181/209/53 182/210/53 183/211/53 184/212/53
f 185/213/54 188/214/54 189/215/54 190/216/54
f 186/217/55 187/218/55 191/219/55 192/220/55
f 191/221/56 187/222/56 188/223/56 189/224/56
f 195/225/57 196/226/57 197/227/57 198/228/57
f 194/229/58 193/230/58 199/231/58 200/232/58
f 201/233/59 204/234/59 205/235/59 206/236/59
f 202/237/60 203/238/60 207/239/60 208/240/60
f 209/241/61 212/242/61 213/243/61 214/244/61
f 210/245/62 211/246/62 215/247/62 216/248/62
f 219/249/63 218/250/63 217/251/63 220/252/63
f 221/253/64 222/254/64 223/255/64 224/256/64
f 225/257/65 226/258/65 227/259/65 228/260/65
f 231/261/66 230/262/66 229/263/66 232/264/66
f 235/265/67 234/266/67 233/267/67 236/268/67
f 237/269/68 238/270/68 239/271/68 240/272/68
f 241/273/69 242/274/69 243/275/69 244/276/69
f 245/277/70 246/278/70 247/279/70 248/280/70
f 249/281/71 250/282/71 251/283/71 252/284/71